M48
; DRILL file {KiCad 7.0.1-0} date 2024 January 28, Sunday 22:02:12
; FORMAT={-:-/ absolute / inch / decimal}
; #@! TF.CreationDate,2024-01-28T22:02:12-07:00
; #@! TF.GenerationSoftware,Kicad,Pcbnew,7.0.1-0
; #@! TF.FileFunction,MixedPlating,1,2
FMAT,2
INCH
; #@! TA.AperFunction,Plated,PTH,ComponentDrill
T1C0.0394
; #@! TA.AperFunction,Plated,PTH,ComponentDrill
T2C0.0402
; #@! TA.AperFunction,Plated,PTH,ComponentDrill
T3C0.0512
; #@! TA.AperFunction,Plated,PTH,ComponentDrill
T4C0.0866
; #@! TA.AperFunction,NonPlated,NPTH,ComponentDrill
T5C0.0591
; #@! TA.AperFunction,NonPlated,NPTH,ComponentDrill
T6C0.0630
; #@! TA.AperFunction,NonPlated,NPTH,ComponentDrill
T7C0.0709
%
G90
G05
T2
X7.4335Y-3.4924
X7.4335Y-3.5924
X7.4335Y-3.6924
X7.4335Y-3.7924
X7.4335Y-3.8924
X7.4335Y-3.9924
X7.4335Y-4.0924
X7.4335Y-4.1924
X7.4335Y-4.2924
X7.4335Y-4.3924
X7.4335Y-4.4924
X7.4335Y-4.5924
X7.4335Y-4.6924
X7.4335Y-4.7924
X7.4335Y-4.8924
X7.4335Y-4.9924
X7.4335Y-5.0924
X7.4335Y-5.1924
X7.4335Y-5.2924
X7.4335Y-5.3924
X7.6835Y-3.5015
X7.7835Y-3.5015
X7.8835Y-3.5015
X8.1335Y-3.4924
X8.1335Y-3.5924
X8.1335Y-3.6924
X8.1335Y-3.7924
X8.1335Y-3.8924
X8.1335Y-3.9924
X8.1335Y-4.0924
X8.1335Y-4.1924
X8.1335Y-4.2924
X8.1335Y-4.3924
X8.1335Y-4.4924
X8.1335Y-4.5924
X8.1335Y-4.6924
X8.1335Y-4.7924
X8.1335Y-4.8924
X8.1335Y-4.9924
X8.1335Y-5.0924
X8.1335Y-5.1924
X8.1335Y-5.2924
X8.1335Y-5.3924
T3
X6.2016Y-5.132
X6.353Y-3.9004
X6.3984Y-5.132
X6.4514Y-4.05
X6.5498Y-3.9004
X6.6756Y-5.134
X6.8724Y-5.134
X8.4836Y-3.322
X8.6804Y-3.322
X9.07Y-3.6056
X9.07Y-3.8024
X9.076Y-4.0843
X9.076Y-4.2811
X9.076Y-4.478
X9.076Y-4.6749
X9.076Y-4.8717
X9.076Y-5.0686
T4
X7.1Y-3.22
X7.105Y-5.34
X9.18Y-3.22
X9.18Y-5.34
T5
X7.688Y-5.268
X7.8789Y-5.268
T6
X6.2Y-3.48
T7
X7.6762Y-5.3873
X7.8908Y-5.3873
T1
G00X6.3083Y-3.3028
M15
G01X6.2492Y-3.3028
M16
G05
G00X6.3083Y-3.6572
M15
G01X6.2492Y-3.6572
M16
G05
G00X6.3181Y-3.4544
M15
G01X6.3181Y-3.5056
M16
G05
G00X6.5543Y-3.4406
M15
G01X6.5543Y-3.5194
M16
G05
T0
M30
