%TF.GenerationSoftware,KiCad,Pcbnew,7.0.1-0*%
%TF.CreationDate,2024-01-28T22:02:15-07:00*%
%TF.ProjectId,biju_saturn_lamp,62696a75-5f73-4617-9475-726e5f6c616d,rev?*%
%TF.SameCoordinates,Original*%
%TF.FileFunction,Soldermask,Bot*%
%TF.FilePolarity,Negative*%
%FSLAX46Y46*%
G04 Gerber Fmt 4.6, Leading zero omitted, Abs format (unit mm)*
G04 Created by KiCad (PCBNEW 7.0.1-0) date 2024-01-28 22:02:15*
%MOMM*%
%LPD*%
G01*
G04 APERTURE LIST*
%ADD10C,4.400000*%
%ADD11R,2.600000X2.600000*%
%ADD12C,2.600000*%
%ADD13C,1.600000*%
%ADD14R,2.000000X4.000000*%
%ADD15O,2.000000X3.300000*%
%ADD16O,3.500000X2.000000*%
%ADD17C,2.340000*%
%ADD18O,1.800000X1.800000*%
%ADD19O,1.500000X1.500000*%
%ADD20O,1.700000X1.700000*%
%ADD21R,1.700000X1.700000*%
G04 APERTURE END LIST*
D10*
%TO.C,H2*%
X233172000Y-135636000D03*
%TD*%
%TO.C,H1*%
X233172000Y-81788000D03*
%TD*%
D11*
%TO.C,J3*%
X230378200Y-96581600D03*
D12*
X230378200Y-91581600D03*
%TD*%
D11*
%TO.C,J2*%
X230530400Y-128741200D03*
D12*
X230530400Y-123741200D03*
X230530400Y-118741200D03*
X230530400Y-113741200D03*
X230530400Y-108741200D03*
X230530400Y-103741200D03*
%TD*%
D11*
%TO.C,J5*%
X220482800Y-84378600D03*
D12*
X215482800Y-84378600D03*
%TD*%
D13*
%TO.C,J1*%
X157480000Y-88392000D03*
D14*
X166480000Y-88392000D03*
D15*
X160480000Y-88392000D03*
D16*
X159480000Y-83892000D03*
X159480000Y-92892000D03*
%TD*%
D11*
%TO.C,SW1*%
X169559600Y-130403800D03*
D12*
X174559600Y-130403800D03*
%TD*%
D17*
%TO.C,RV1*%
X166366000Y-99070000D03*
X163866000Y-102870000D03*
X161366000Y-99070000D03*
%TD*%
D10*
%TO.C,H4*%
X180467000Y-135636000D03*
%TD*%
D18*
%TO.C,U1*%
X200425200Y-136837200D03*
D19*
X200125200Y-133807200D03*
X195275200Y-133807200D03*
D18*
X194975200Y-136837200D03*
D20*
X206590200Y-136967200D03*
X206590200Y-134427200D03*
D21*
X206590200Y-131887200D03*
D20*
X206590200Y-129347200D03*
X206590200Y-126807200D03*
X206590200Y-124267200D03*
X206590200Y-121727200D03*
D21*
X206590200Y-119187200D03*
D20*
X206590200Y-116647200D03*
X206590200Y-114107200D03*
X206590200Y-111567200D03*
X206590200Y-109027200D03*
D21*
X206590200Y-106487200D03*
D20*
X206590200Y-103947200D03*
X206590200Y-101407200D03*
X206590200Y-98867200D03*
X206590200Y-96327200D03*
D21*
X206590200Y-93787200D03*
D20*
X206590200Y-91247200D03*
X206590200Y-88707200D03*
X188810200Y-88707200D03*
X188810200Y-91247200D03*
D21*
X188810200Y-93787200D03*
D20*
X188810200Y-96327200D03*
X188810200Y-98867200D03*
X188810200Y-101407200D03*
X188810200Y-103947200D03*
D21*
X188810200Y-106487200D03*
D20*
X188810200Y-109027200D03*
X188810200Y-111567200D03*
X188810200Y-114107200D03*
X188810200Y-116647200D03*
D21*
X188810200Y-119187200D03*
D20*
X188810200Y-121727200D03*
X188810200Y-124267200D03*
X188810200Y-126807200D03*
X188810200Y-129347200D03*
D21*
X188810200Y-131887200D03*
D20*
X188810200Y-134427200D03*
X188810200Y-136967200D03*
X200240200Y-88937200D03*
D21*
X197700200Y-88937200D03*
D20*
X195160200Y-88937200D03*
%TD*%
D10*
%TO.C,H3*%
X180340000Y-81788000D03*
%TD*%
D11*
%TO.C,J4*%
X157520000Y-130353000D03*
D12*
X162520000Y-130353000D03*
%TD*%
M02*
