%TF.GenerationSoftware,KiCad,Pcbnew,7.0.1-0*%
%TF.CreationDate,2024-01-28T22:02:15-07:00*%
%TF.ProjectId,biju_saturn_lamp,62696a75-5f73-4617-9475-726e5f6c616d,rev?*%
%TF.SameCoordinates,Original*%
%TF.FileFunction,Copper,L2,Bot*%
%TF.FilePolarity,Positive*%
%FSLAX46Y46*%
G04 Gerber Fmt 4.6, Leading zero omitted, Abs format (unit mm)*
G04 Created by KiCad (PCBNEW 7.0.1-0) date 2024-01-28 22:02:15*
%MOMM*%
%LPD*%
G01*
G04 APERTURE LIST*
%TA.AperFunction,ComponentPad*%
%ADD10C,4.400000*%
%TD*%
%TA.AperFunction,ComponentPad*%
%ADD11R,2.600000X2.600000*%
%TD*%
%TA.AperFunction,ComponentPad*%
%ADD12C,2.600000*%
%TD*%
%TA.AperFunction,ComponentPad*%
%ADD13R,2.000000X4.000000*%
%TD*%
%TA.AperFunction,ComponentPad*%
%ADD14O,2.000000X3.300000*%
%TD*%
%TA.AperFunction,ComponentPad*%
%ADD15O,3.500000X2.000000*%
%TD*%
%TA.AperFunction,ComponentPad*%
%ADD16C,2.340000*%
%TD*%
%TA.AperFunction,ComponentPad*%
%ADD17O,1.700000X1.700000*%
%TD*%
%TA.AperFunction,ComponentPad*%
%ADD18R,1.700000X1.700000*%
%TD*%
G04 APERTURE END LIST*
D10*
%TO.P,H2,1*%
%TO.N,N/C*%
X233172000Y-135636000D03*
%TD*%
%TO.P,H1,1*%
%TO.N,N/C*%
X233172000Y-81788000D03*
%TD*%
D11*
%TO.P,J3,1,Pin_1*%
%TO.N,VCC*%
X230378200Y-96581600D03*
D12*
%TO.P,J3,2,Pin_2*%
%TO.N,GND*%
X230378200Y-91581600D03*
%TD*%
D11*
%TO.P,J2,1,Pin_1*%
%TO.N,Net-(J2-Pin_1)*%
X230530400Y-128741200D03*
D12*
%TO.P,J2,2,Pin_2*%
%TO.N,Net-(J2-Pin_2)*%
X230530400Y-123741200D03*
%TO.P,J2,3,Pin_3*%
%TO.N,Net-(J2-Pin_3)*%
X230530400Y-118741200D03*
%TO.P,J2,4,Pin_4*%
%TO.N,Net-(J2-Pin_4)*%
X230530400Y-113741200D03*
%TO.P,J2,5,Pin_5*%
%TO.N,Net-(J2-Pin_5)*%
X230530400Y-108741200D03*
%TO.P,J2,6,Pin_6*%
%TO.N,Net-(J2-Pin_6)*%
X230530400Y-103741200D03*
%TD*%
D11*
%TO.P,J5,1,Pin_1*%
%TO.N,VCC*%
X220482800Y-84378600D03*
D12*
%TO.P,J5,2,Pin_2*%
%TO.N,Net-(J5-Pin_2)*%
X215482800Y-84378600D03*
%TD*%
D13*
%TO.P,J1,1*%
%TO.N,Net-(J5-Pin_2)*%
X166480000Y-88392000D03*
D14*
%TO.P,J1,2*%
%TO.N,GND*%
X160480000Y-88392000D03*
D15*
%TO.P,J1,MP*%
%TO.N,N/C*%
X159480000Y-83892000D03*
X159480000Y-92892000D03*
%TD*%
D11*
%TO.P,SW1,1,1*%
%TO.N,GPIO8*%
X169559600Y-130403800D03*
D12*
%TO.P,SW1,2,2*%
%TO.N,VCC*%
X174559600Y-130403800D03*
%TD*%
D16*
%TO.P,RV1,1,1*%
%TO.N,GND*%
X166366000Y-99070000D03*
%TO.P,RV1,2,2*%
%TO.N,Net-(C1-Pad1)*%
X163866000Y-102870000D03*
%TO.P,RV1,3,3*%
%TO.N,GPIO27*%
X161366000Y-99070000D03*
%TD*%
D10*
%TO.P,H4,1*%
%TO.N,N/C*%
X180467000Y-135636000D03*
%TD*%
D17*
%TO.P,U1,1,GPIO0*%
%TO.N,GPIO0*%
X206590200Y-136967200D03*
%TO.P,U1,2,GPIO1*%
%TO.N,GPIO1*%
X206590200Y-134427200D03*
D18*
%TO.P,U1,3,GND*%
%TO.N,unconnected-(U1-GND-Pad3)*%
X206590200Y-131887200D03*
D17*
%TO.P,U1,4,GPIO2*%
%TO.N,GPIO2*%
X206590200Y-129347200D03*
%TO.P,U1,5,GPIO3*%
%TO.N,unconnected-(U1-GPIO3-Pad5)*%
X206590200Y-126807200D03*
%TO.P,U1,6,GPIO4*%
%TO.N,unconnected-(U1-GPIO4-Pad6)*%
X206590200Y-124267200D03*
%TO.P,U1,7,GPIO5*%
%TO.N,unconnected-(U1-GPIO5-Pad7)*%
X206590200Y-121727200D03*
D18*
%TO.P,U1,8,GND*%
%TO.N,GND*%
X206590200Y-119187200D03*
D17*
%TO.P,U1,9,GPIO6*%
%TO.N,unconnected-(U1-GPIO6-Pad9)*%
X206590200Y-116647200D03*
%TO.P,U1,10,GPIO7*%
%TO.N,unconnected-(U1-GPIO7-Pad10)*%
X206590200Y-114107200D03*
%TO.P,U1,11,GPIO8*%
%TO.N,GPIO8*%
X206590200Y-111567200D03*
%TO.P,U1,12,GPIO9*%
%TO.N,unconnected-(U1-GPIO9-Pad12)*%
X206590200Y-109027200D03*
D18*
%TO.P,U1,13,GND*%
%TO.N,unconnected-(U1-GND-Pad13)*%
X206590200Y-106487200D03*
D17*
%TO.P,U1,14,GPIO10*%
%TO.N,unconnected-(U1-GPIO10-Pad14)*%
X206590200Y-103947200D03*
%TO.P,U1,15,GPIO11*%
%TO.N,unconnected-(U1-GPIO11-Pad15)*%
X206590200Y-101407200D03*
%TO.P,U1,16,GPIO12*%
%TO.N,unconnected-(U1-GPIO12-Pad16)*%
X206590200Y-98867200D03*
%TO.P,U1,17,GPIO13*%
%TO.N,unconnected-(U1-GPIO13-Pad17)*%
X206590200Y-96327200D03*
D18*
%TO.P,U1,18,GND*%
%TO.N,GND*%
X206590200Y-93787200D03*
D17*
%TO.P,U1,19,GPIO14*%
%TO.N,unconnected-(U1-GPIO14-Pad19)*%
X206590200Y-91247200D03*
%TO.P,U1,20,GPIO15*%
%TO.N,unconnected-(U1-GPIO15-Pad20)*%
X206590200Y-88707200D03*
%TO.P,U1,21,GPIO16*%
%TO.N,unconnected-(U1-GPIO16-Pad21)*%
X188810200Y-88707200D03*
%TO.P,U1,22,GPIO17*%
%TO.N,unconnected-(U1-GPIO17-Pad22)*%
X188810200Y-91247200D03*
D18*
%TO.P,U1,23,GND*%
%TO.N,GND*%
X188810200Y-93787200D03*
D17*
%TO.P,U1,24,GPIO18*%
%TO.N,unconnected-(U1-GPIO18-Pad24)*%
X188810200Y-96327200D03*
%TO.P,U1,25,GPIO19*%
%TO.N,unconnected-(U1-GPIO19-Pad25)*%
X188810200Y-98867200D03*
%TO.P,U1,26,GPIO20*%
%TO.N,unconnected-(U1-GPIO20-Pad26)*%
X188810200Y-101407200D03*
%TO.P,U1,27,GPIO21*%
%TO.N,unconnected-(U1-GPIO21-Pad27)*%
X188810200Y-103947200D03*
D18*
%TO.P,U1,28,GND*%
%TO.N,unconnected-(U1-GND-Pad28)*%
X188810200Y-106487200D03*
D17*
%TO.P,U1,29,GPIO22*%
%TO.N,unconnected-(U1-GPIO22-Pad29)*%
X188810200Y-109027200D03*
%TO.P,U1,30,RUN*%
%TO.N,unconnected-(U1-RUN-Pad30)*%
X188810200Y-111567200D03*
%TO.P,U1,31,GPIO26_ADC0*%
%TO.N,unconnected-(U1-GPIO26_ADC0-Pad31)*%
X188810200Y-114107200D03*
%TO.P,U1,32,GPIO27_ADC1*%
%TO.N,GPIO27*%
X188810200Y-116647200D03*
D18*
%TO.P,U1,33,AGND*%
%TO.N,unconnected-(U1-AGND-Pad33)*%
X188810200Y-119187200D03*
D17*
%TO.P,U1,34,GPIO28_ADC2*%
%TO.N,unconnected-(U1-GPIO28_ADC2-Pad34)*%
X188810200Y-121727200D03*
%TO.P,U1,35,ADC_VREF*%
%TO.N,unconnected-(U1-ADC_VREF-Pad35)*%
X188810200Y-124267200D03*
%TO.P,U1,36,3V3*%
%TO.N,3v3*%
X188810200Y-126807200D03*
%TO.P,U1,37,3V3_EN*%
%TO.N,3v3_EN*%
X188810200Y-129347200D03*
D18*
%TO.P,U1,38,GND*%
%TO.N,GND*%
X188810200Y-131887200D03*
D17*
%TO.P,U1,39,VSYS*%
%TO.N,VCC*%
X188810200Y-134427200D03*
%TO.P,U1,40,VBUS*%
%TO.N,unconnected-(U1-VBUS-Pad40)*%
X188810200Y-136967200D03*
%TO.P,U1,41,SWCLK*%
%TO.N,unconnected-(U1-SWCLK-Pad41)*%
X200240200Y-88937200D03*
D18*
%TO.P,U1,42,GND*%
%TO.N,unconnected-(U1-GND-Pad42)*%
X197700200Y-88937200D03*
D17*
%TO.P,U1,43,SWDIO*%
%TO.N,unconnected-(U1-SWDIO-Pad43)*%
X195160200Y-88937200D03*
%TD*%
D10*
%TO.P,H3,1*%
%TO.N,N/C*%
X180340000Y-81788000D03*
%TD*%
D11*
%TO.P,J4,1,Pin_1*%
%TO.N,Net-(J4-Pin_1)*%
X157520000Y-130353000D03*
D12*
%TO.P,J4,2,Pin_2*%
%TO.N,Net-(J4-Pin_2)*%
X162520000Y-130353000D03*
%TD*%
%TA.AperFunction,Conductor*%
%TO.N,GND*%
G36*
X232675497Y-78740304D02*
G01*
X232675808Y-78740388D01*
X232675808Y-78740305D01*
X232675831Y-78740305D01*
X232861487Y-78740811D01*
X233724424Y-78743169D01*
X233730957Y-78743361D01*
X233795916Y-78747009D01*
X233964348Y-78757199D01*
X233977593Y-78758720D01*
X234109683Y-78781163D01*
X234110981Y-78781393D01*
X234256210Y-78808007D01*
X234268153Y-78810814D01*
X234400788Y-78849025D01*
X234403279Y-78849773D01*
X234540146Y-78892423D01*
X234550682Y-78896237D01*
X234679736Y-78949693D01*
X234683063Y-78951130D01*
X234812306Y-79009298D01*
X234821369Y-79013832D01*
X234921498Y-79069172D01*
X234944331Y-79081791D01*
X234948500Y-79084202D01*
X235068988Y-79157040D01*
X235076592Y-79162027D01*
X235191525Y-79243575D01*
X235196223Y-79247078D01*
X235287606Y-79318672D01*
X235306752Y-79333672D01*
X235312906Y-79338823D01*
X235418133Y-79432859D01*
X235423187Y-79437638D01*
X235522360Y-79536811D01*
X235527139Y-79541865D01*
X235621175Y-79647092D01*
X235626326Y-79653246D01*
X235712904Y-79763754D01*
X235716423Y-79768473D01*
X235797971Y-79883406D01*
X235802958Y-79891010D01*
X235875796Y-80011498D01*
X235878207Y-80015667D01*
X235946164Y-80138626D01*
X235950710Y-80147713D01*
X235997257Y-80251136D01*
X236008832Y-80276853D01*
X236010317Y-80280291D01*
X236063756Y-80409303D01*
X236067580Y-80419866D01*
X236110214Y-80556684D01*
X236110983Y-80559246D01*
X236149180Y-80691831D01*
X236151995Y-80703807D01*
X236178578Y-80848865D01*
X236178857Y-80850446D01*
X236201275Y-80982385D01*
X236202801Y-80995670D01*
X236213003Y-81164349D01*
X236213034Y-81164880D01*
X236214580Y-81192399D01*
X236214774Y-81199872D01*
X235991104Y-134791393D01*
X235971418Y-134857919D01*
X235919077Y-134903458D01*
X235850467Y-134913754D01*
X235787065Y-134885583D01*
X235748720Y-134827765D01*
X235701629Y-134676645D01*
X235701628Y-134676644D01*
X235701627Y-134676639D01*
X235567545Y-134378721D01*
X235398530Y-134099137D01*
X235197048Y-133841964D01*
X234966036Y-133610952D01*
X234708863Y-133409470D01*
X234429279Y-133240455D01*
X234131361Y-133106373D01*
X234131359Y-133106372D01*
X234131354Y-133106370D01*
X233819458Y-133009180D01*
X233792108Y-133004168D01*
X233498104Y-132950290D01*
X233498103Y-132950289D01*
X233172000Y-132930563D01*
X232845895Y-132950290D01*
X232524541Y-133009180D01*
X232212645Y-133106370D01*
X231914720Y-133240455D01*
X231635136Y-133409470D01*
X231377961Y-133610954D01*
X231146954Y-133841961D01*
X230945470Y-134099136D01*
X230776455Y-134378720D01*
X230642370Y-134676645D01*
X230545180Y-134988541D01*
X230486290Y-135309895D01*
X230466563Y-135635999D01*
X230482544Y-135900171D01*
X230486290Y-135962104D01*
X230537256Y-136240221D01*
X230545180Y-136283458D01*
X230642370Y-136595354D01*
X230642372Y-136595359D01*
X230642373Y-136595361D01*
X230776455Y-136893279D01*
X230945470Y-137172863D01*
X231146952Y-137430036D01*
X231377964Y-137661048D01*
X231635137Y-137862530D01*
X231914721Y-138031545D01*
X232212639Y-138165627D01*
X232212644Y-138165628D01*
X232212645Y-138165629D01*
X232260779Y-138180628D01*
X232524547Y-138262821D01*
X232845896Y-138321710D01*
X233172000Y-138341436D01*
X233498104Y-138321710D01*
X233819453Y-138262821D01*
X234131361Y-138165627D01*
X234429279Y-138031545D01*
X234708863Y-137862530D01*
X234966036Y-137661048D01*
X235197048Y-137430036D01*
X235398530Y-137172863D01*
X235567545Y-136893279D01*
X235701627Y-136595361D01*
X235714632Y-136553624D01*
X235741570Y-136467180D01*
X235780074Y-136409228D01*
X235843727Y-136381136D01*
X235912490Y-136391749D01*
X235964713Y-136437724D01*
X235983954Y-136504588D01*
X235981397Y-137117017D01*
X235970473Y-137167391D01*
X235950985Y-137210691D01*
X235946437Y-137219782D01*
X235877572Y-137344380D01*
X235875161Y-137348548D01*
X235803333Y-137467362D01*
X235798346Y-137474967D01*
X235715807Y-137591292D01*
X235712288Y-137596010D01*
X235626803Y-137705122D01*
X235621651Y-137711276D01*
X235526548Y-137817693D01*
X235521770Y-137822747D01*
X235423814Y-137920701D01*
X235418761Y-137925479D01*
X235333447Y-138001720D01*
X235320081Y-138013665D01*
X235312337Y-138020585D01*
X235306182Y-138025737D01*
X235197057Y-138111229D01*
X235192339Y-138114747D01*
X235076034Y-138197268D01*
X235068429Y-138202255D01*
X234949590Y-138274095D01*
X234945421Y-138276506D01*
X234820853Y-138345351D01*
X234811763Y-138349899D01*
X234684591Y-138407133D01*
X234681154Y-138408618D01*
X234550183Y-138462868D01*
X234539620Y-138466692D01*
X234405494Y-138508487D01*
X234402931Y-138509256D01*
X234267686Y-138548219D01*
X234255710Y-138551034D01*
X234114817Y-138576853D01*
X234113237Y-138577132D01*
X233977169Y-138600251D01*
X233963884Y-138601777D01*
X233807009Y-138611265D01*
X233806477Y-138611296D01*
X233708911Y-138616776D01*
X233682592Y-138618254D01*
X233675653Y-138618449D01*
X156474535Y-138618449D01*
X156467580Y-138618254D01*
X156355882Y-138611979D01*
X156355347Y-138611948D01*
X156186718Y-138601744D01*
X156173436Y-138600218D01*
X156041456Y-138577792D01*
X156039874Y-138577512D01*
X155894869Y-138550936D01*
X155882895Y-138548121D01*
X155750307Y-138509922D01*
X155747743Y-138509154D01*
X155610919Y-138466516D01*
X155600357Y-138462691D01*
X155471363Y-138409258D01*
X155467925Y-138407773D01*
X155338771Y-138349644D01*
X155329682Y-138345097D01*
X155258790Y-138305916D01*
X155206712Y-138277133D01*
X155202562Y-138274733D01*
X155146930Y-138241102D01*
X155082054Y-138201883D01*
X155074488Y-138196921D01*
X154959507Y-138115337D01*
X154954837Y-138111854D01*
X154844919Y-138025737D01*
X154844304Y-138025255D01*
X154838161Y-138020113D01*
X154732919Y-137926063D01*
X154727882Y-137921300D01*
X154628698Y-137822116D01*
X154623938Y-137817082D01*
X154529880Y-137711832D01*
X154524743Y-137705694D01*
X154489762Y-137661045D01*
X154438135Y-137595148D01*
X154434672Y-137590506D01*
X154353069Y-137475498D01*
X154348125Y-137467958D01*
X154275245Y-137347402D01*
X154272885Y-137343320D01*
X154204894Y-137220302D01*
X154200354Y-137211227D01*
X154200113Y-137210691D01*
X154142215Y-137082050D01*
X154140740Y-137078635D01*
X154087302Y-136949628D01*
X154083487Y-136939094D01*
X154040822Y-136802181D01*
X154040076Y-136799691D01*
X154001877Y-136667103D01*
X153999064Y-136655139D01*
X153972446Y-136509902D01*
X153972239Y-136508730D01*
X153949778Y-136376548D01*
X153948256Y-136363298D01*
X153938033Y-136194343D01*
X153931743Y-136082367D01*
X153931549Y-136075525D01*
X153931380Y-135635999D01*
X177761563Y-135635999D01*
X177777544Y-135900171D01*
X177781290Y-135962104D01*
X177832256Y-136240221D01*
X177840180Y-136283458D01*
X177937370Y-136595354D01*
X177937372Y-136595359D01*
X177937373Y-136595361D01*
X178071455Y-136893279D01*
X178240470Y-137172863D01*
X178441952Y-137430036D01*
X178672964Y-137661048D01*
X178930137Y-137862530D01*
X179209721Y-138031545D01*
X179507639Y-138165627D01*
X179507644Y-138165628D01*
X179507645Y-138165629D01*
X179555779Y-138180628D01*
X179819547Y-138262821D01*
X180140896Y-138321710D01*
X180467000Y-138341436D01*
X180793104Y-138321710D01*
X181114453Y-138262821D01*
X181426361Y-138165627D01*
X181724279Y-138031545D01*
X182003863Y-137862530D01*
X182261036Y-137661048D01*
X182492048Y-137430036D01*
X182693530Y-137172863D01*
X182817859Y-136967199D01*
X187454540Y-136967199D01*
X187475136Y-137202607D01*
X187507980Y-137325181D01*
X187536297Y-137430863D01*
X187636165Y-137645030D01*
X187771705Y-137838601D01*
X187938799Y-138005695D01*
X188132370Y-138141235D01*
X188346537Y-138241103D01*
X188574792Y-138302263D01*
X188810200Y-138322859D01*
X189045608Y-138302263D01*
X189273863Y-138241103D01*
X189488030Y-138141235D01*
X189681601Y-138005695D01*
X189848695Y-137838601D01*
X189984235Y-137645030D01*
X190084103Y-137430863D01*
X190145263Y-137202608D01*
X190165859Y-136967200D01*
X190161526Y-136917680D01*
X190154485Y-136837198D01*
X193569899Y-136837198D01*
X193576950Y-136922297D01*
X193577261Y-136927271D01*
X193581020Y-137015732D01*
X193585292Y-137035556D01*
X193587651Y-137051437D01*
X193589065Y-137068501D01*
X193610861Y-137154571D01*
X193611869Y-137158876D01*
X193623830Y-137214371D01*
X193631246Y-137248781D01*
X193637533Y-137264426D01*
X193642679Y-137280217D01*
X193646043Y-137293501D01*
X193683075Y-137377927D01*
X193684577Y-137381501D01*
X193720136Y-137469990D01*
X193727179Y-137481429D01*
X193735145Y-137496631D01*
X193739276Y-137506049D01*
X193791566Y-137586086D01*
X193793347Y-137588893D01*
X193845131Y-137672996D01*
X193851739Y-137680503D01*
X193862468Y-137694609D01*
X193866221Y-137700353D01*
X193933317Y-137773240D01*
X193935130Y-137775254D01*
X193976929Y-137822747D01*
X194002637Y-137851956D01*
X194007761Y-137856094D01*
X194021086Y-137868582D01*
X194023416Y-137871113D01*
X194094037Y-137926079D01*
X194104262Y-137934037D01*
X194106000Y-137935415D01*
X194156515Y-137976204D01*
X194188120Y-138001723D01*
X194190885Y-138003267D01*
X194206559Y-138013658D01*
X194206574Y-138013670D01*
X194299707Y-138064070D01*
X194300985Y-138064773D01*
X194396246Y-138117990D01*
X194396251Y-138117991D01*
X194396452Y-138118104D01*
X194407784Y-138123135D01*
X194410692Y-138124133D01*
X194410697Y-138124136D01*
X194513990Y-138159596D01*
X194514896Y-138159912D01*
X194564131Y-138177307D01*
X194621029Y-138197411D01*
X194621032Y-138197411D01*
X194624000Y-138198460D01*
X194630217Y-138199497D01*
X194630219Y-138199498D01*
X194741397Y-138218049D01*
X194741728Y-138218106D01*
X194796228Y-138227451D01*
X194855999Y-138237700D01*
X194856000Y-138237700D01*
X194859151Y-138237700D01*
X195034697Y-138237700D01*
X195091247Y-138237700D01*
X195091249Y-138237700D01*
X195145210Y-138228694D01*
X195155105Y-138227451D01*
X195212741Y-138222546D01*
X195262141Y-138209682D01*
X195272960Y-138207377D01*
X195305888Y-138201883D01*
X195320182Y-138199498D01*
X195375146Y-138180628D01*
X195384149Y-138177914D01*
X195443449Y-138162475D01*
X195486842Y-138142859D01*
X195497643Y-138138574D01*
X195539703Y-138124136D01*
X195593822Y-138094847D01*
X195601730Y-138090926D01*
X195660686Y-138064277D01*
X195697308Y-138039524D01*
X195707715Y-138033211D01*
X195743826Y-138013670D01*
X195795077Y-137973778D01*
X195801789Y-137968906D01*
X195851344Y-137935415D01*
X195858202Y-137930780D01*
X195868093Y-137921300D01*
X195887660Y-137902545D01*
X195897264Y-137894244D01*
X195926984Y-137871113D01*
X195973281Y-137820819D01*
X195978690Y-137815300D01*
X196030318Y-137765821D01*
X196052550Y-137735759D01*
X196060997Y-137725533D01*
X196084179Y-137700353D01*
X196123438Y-137640260D01*
X196127512Y-137634403D01*
X196172079Y-137574147D01*
X196187363Y-137543830D01*
X196194279Y-137531832D01*
X196197904Y-137526282D01*
X196211124Y-137506049D01*
X196241323Y-137437200D01*
X196244127Y-137431245D01*
X196279407Y-137361274D01*
X196288350Y-137332068D01*
X196293358Y-137318574D01*
X196297223Y-137309763D01*
X196304357Y-137293500D01*
X196323653Y-137217299D01*
X196325288Y-137211455D01*
X196349215Y-137133326D01*
X196349214Y-137133326D01*
X196349216Y-137133323D01*
X196352661Y-137106415D01*
X196355447Y-137091748D01*
X196361334Y-137068505D01*
X196368103Y-136986800D01*
X196368684Y-136981295D01*
X196370489Y-136967199D01*
X196379498Y-136896854D01*
X196378491Y-136873160D01*
X196378802Y-136857681D01*
X196380500Y-136837200D01*
X196380500Y-136837198D01*
X199019899Y-136837198D01*
X199026950Y-136922297D01*
X199027261Y-136927271D01*
X199031020Y-137015732D01*
X199035292Y-137035556D01*
X199037651Y-137051437D01*
X199039065Y-137068501D01*
X199060861Y-137154571D01*
X199061869Y-137158876D01*
X199073830Y-137214371D01*
X199081246Y-137248781D01*
X199087533Y-137264426D01*
X199092679Y-137280217D01*
X199096043Y-137293501D01*
X199133075Y-137377927D01*
X199134577Y-137381501D01*
X199170136Y-137469990D01*
X199177179Y-137481429D01*
X199185145Y-137496631D01*
X199189276Y-137506049D01*
X199241566Y-137586086D01*
X199243347Y-137588893D01*
X199295131Y-137672996D01*
X199301739Y-137680503D01*
X199312468Y-137694609D01*
X199316221Y-137700353D01*
X199383317Y-137773240D01*
X199385130Y-137775254D01*
X199426929Y-137822747D01*
X199452637Y-137851956D01*
X199457761Y-137856094D01*
X199471086Y-137868582D01*
X199473416Y-137871113D01*
X199544037Y-137926079D01*
X199554262Y-137934037D01*
X199556000Y-137935415D01*
X199606515Y-137976204D01*
X199638120Y-138001723D01*
X199640885Y-138003267D01*
X199656559Y-138013658D01*
X199656574Y-138013670D01*
X199749707Y-138064070D01*
X199750985Y-138064773D01*
X199846246Y-138117990D01*
X199846251Y-138117991D01*
X199846452Y-138118104D01*
X199857784Y-138123135D01*
X199860692Y-138124133D01*
X199860697Y-138124136D01*
X199963990Y-138159596D01*
X199964896Y-138159912D01*
X200014131Y-138177307D01*
X200071029Y-138197411D01*
X200071032Y-138197411D01*
X200074000Y-138198460D01*
X200080217Y-138199497D01*
X200080219Y-138199498D01*
X200191397Y-138218049D01*
X200191728Y-138218106D01*
X200246228Y-138227451D01*
X200305999Y-138237700D01*
X200306000Y-138237700D01*
X200309151Y-138237700D01*
X200484697Y-138237700D01*
X200541247Y-138237700D01*
X200541249Y-138237700D01*
X200595210Y-138228694D01*
X200605105Y-138227451D01*
X200662741Y-138222546D01*
X200712141Y-138209682D01*
X200722960Y-138207377D01*
X200755888Y-138201883D01*
X200770182Y-138199498D01*
X200825146Y-138180628D01*
X200834149Y-138177914D01*
X200893449Y-138162475D01*
X200936842Y-138142859D01*
X200947643Y-138138574D01*
X200989703Y-138124136D01*
X201043822Y-138094847D01*
X201051730Y-138090926D01*
X201110686Y-138064277D01*
X201147308Y-138039524D01*
X201157715Y-138033211D01*
X201193826Y-138013670D01*
X201245077Y-137973778D01*
X201251789Y-137968906D01*
X201301344Y-137935415D01*
X201308202Y-137930780D01*
X201318093Y-137921300D01*
X201337660Y-137902545D01*
X201347264Y-137894244D01*
X201376984Y-137871113D01*
X201423281Y-137820819D01*
X201428690Y-137815300D01*
X201480318Y-137765821D01*
X201502550Y-137735759D01*
X201510997Y-137725533D01*
X201534179Y-137700353D01*
X201573438Y-137640260D01*
X201577512Y-137634403D01*
X201622079Y-137574147D01*
X201637363Y-137543830D01*
X201644279Y-137531832D01*
X201647904Y-137526282D01*
X201661124Y-137506049D01*
X201691323Y-137437200D01*
X201694127Y-137431245D01*
X201729407Y-137361274D01*
X201738350Y-137332068D01*
X201743358Y-137318574D01*
X201747223Y-137309763D01*
X201754357Y-137293500D01*
X201773653Y-137217299D01*
X201775288Y-137211455D01*
X201799215Y-137133326D01*
X201799214Y-137133326D01*
X201799216Y-137133323D01*
X201802661Y-137106415D01*
X201805447Y-137091748D01*
X201811334Y-137068505D01*
X201818103Y-136986800D01*
X201818684Y-136981295D01*
X201820489Y-136967199D01*
X205234540Y-136967199D01*
X205255136Y-137202607D01*
X205287980Y-137325181D01*
X205316297Y-137430863D01*
X205416165Y-137645030D01*
X205551705Y-137838601D01*
X205718799Y-138005695D01*
X205912370Y-138141235D01*
X206126537Y-138241103D01*
X206354792Y-138302263D01*
X206590200Y-138322859D01*
X206825608Y-138302263D01*
X207053863Y-138241103D01*
X207268030Y-138141235D01*
X207461601Y-138005695D01*
X207628695Y-137838601D01*
X207764235Y-137645030D01*
X207864103Y-137430863D01*
X207925263Y-137202608D01*
X207945859Y-136967200D01*
X207941526Y-136917680D01*
X207925263Y-136731792D01*
X207905670Y-136658669D01*
X207864103Y-136503537D01*
X207764235Y-136289371D01*
X207628695Y-136095799D01*
X207461601Y-135928705D01*
X207276039Y-135798773D01*
X207237174Y-135754455D01*
X207223164Y-135697199D01*
X207237175Y-135639942D01*
X207276037Y-135595628D01*
X207461601Y-135465695D01*
X207628695Y-135298601D01*
X207764235Y-135105030D01*
X207864103Y-134890863D01*
X207925263Y-134662608D01*
X207945859Y-134427200D01*
X207925263Y-134191792D01*
X207864103Y-133963537D01*
X207764235Y-133749371D01*
X207628695Y-133555799D01*
X207506769Y-133433873D01*
X207475473Y-133381127D01*
X207473284Y-133319834D01*
X207500737Y-133264989D01*
X207551116Y-133230010D01*
X207682531Y-133180996D01*
X207797746Y-133094746D01*
X207883996Y-132979531D01*
X207934291Y-132844683D01*
X207940700Y-132785073D01*
X207940699Y-130989328D01*
X207934291Y-130929717D01*
X207883996Y-130794869D01*
X207797746Y-130679654D01*
X207682531Y-130593404D01*
X207621098Y-130570491D01*
X207551116Y-130544389D01*
X207500737Y-130509409D01*
X207473284Y-130454565D01*
X207475473Y-130393272D01*
X207506766Y-130340529D01*
X207628695Y-130218601D01*
X207719394Y-130089069D01*
X228729900Y-130089069D01*
X228734806Y-130134699D01*
X228736309Y-130148683D01*
X228786604Y-130283531D01*
X228872854Y-130398746D01*
X228988069Y-130484996D01*
X229122917Y-130535291D01*
X229182527Y-130541700D01*
X231878272Y-130541699D01*
X231937883Y-130535291D01*
X232072731Y-130484996D01*
X232187946Y-130398746D01*
X232274196Y-130283531D01*
X232324491Y-130148683D01*
X232330900Y-130089073D01*
X232330899Y-127393328D01*
X232324491Y-127333717D01*
X232274196Y-127198869D01*
X232187946Y-127083654D01*
X232072731Y-126997404D01*
X231937883Y-126947109D01*
X231878273Y-126940700D01*
X231878269Y-126940700D01*
X229182530Y-126940700D01*
X229122915Y-126947109D01*
X228988069Y-126997404D01*
X228872854Y-127083654D01*
X228786604Y-127198868D01*
X228736309Y-127333716D01*
X228729900Y-127393330D01*
X228729900Y-130089069D01*
X207719394Y-130089069D01*
X207764235Y-130025030D01*
X207864103Y-129810863D01*
X207925263Y-129582608D01*
X207945859Y-129347200D01*
X207925263Y-129111792D01*
X207864103Y-128883537D01*
X207764235Y-128669371D01*
X207628695Y-128475799D01*
X207461601Y-128308705D01*
X207276039Y-128178773D01*
X207237176Y-128134457D01*
X207223165Y-128077200D01*
X207237176Y-128019943D01*
X207276039Y-127975626D01*
X207461601Y-127845695D01*
X207628695Y-127678601D01*
X207764235Y-127485030D01*
X207864103Y-127270863D01*
X207925263Y-127042608D01*
X207945859Y-126807200D01*
X207925263Y-126571792D01*
X207864103Y-126343537D01*
X207764235Y-126129371D01*
X207628695Y-125935799D01*
X207461601Y-125768705D01*
X207276039Y-125638773D01*
X207237176Y-125594457D01*
X207223165Y-125537200D01*
X207237176Y-125479943D01*
X207276039Y-125435626D01*
X207461601Y-125305695D01*
X207628695Y-125138601D01*
X207764235Y-124945030D01*
X207864103Y-124730863D01*
X207925263Y-124502608D01*
X207945859Y-124267200D01*
X207925263Y-124031792D01*
X207864103Y-123803537D01*
X207835034Y-123741199D01*
X228724850Y-123741199D01*
X228745016Y-124010300D01*
X228803652Y-124267199D01*
X228805066Y-124273395D01*
X228903657Y-124524598D01*
X229038585Y-124758302D01*
X229206839Y-124969285D01*
X229404659Y-125152835D01*
X229627626Y-125304851D01*
X229870759Y-125421938D01*
X230128628Y-125501480D01*
X230395471Y-125541700D01*
X230665329Y-125541700D01*
X230932172Y-125501480D01*
X231190041Y-125421938D01*
X231433175Y-125304851D01*
X231656141Y-125152835D01*
X231853961Y-124969285D01*
X232022215Y-124758302D01*
X232157143Y-124524598D01*
X232255734Y-124273395D01*
X232315783Y-124010303D01*
X232335949Y-123741200D01*
X232315783Y-123472097D01*
X232255734Y-123209005D01*
X232157143Y-122957802D01*
X232022215Y-122724098D01*
X231853961Y-122513115D01*
X231853960Y-122513114D01*
X231656143Y-122329566D01*
X231598605Y-122290337D01*
X231433175Y-122177549D01*
X231190041Y-122060462D01*
X231110498Y-122035926D01*
X230932171Y-121980919D01*
X230665329Y-121940700D01*
X230395471Y-121940700D01*
X230128628Y-121980919D01*
X229870759Y-122060462D01*
X229627628Y-122177547D01*
X229404657Y-122329566D01*
X229206839Y-122513115D01*
X229038584Y-122724099D01*
X228903657Y-122957801D01*
X228805066Y-123209004D01*
X228745016Y-123472099D01*
X228724850Y-123741199D01*
X207835034Y-123741199D01*
X207764235Y-123589371D01*
X207628695Y-123395799D01*
X207461601Y-123228705D01*
X207276039Y-123098773D01*
X207237175Y-123054457D01*
X207223164Y-122997200D01*
X207237175Y-122939943D01*
X207276039Y-122895626D01*
X207461601Y-122765695D01*
X207628695Y-122598601D01*
X207764235Y-122405030D01*
X207864103Y-122190863D01*
X207925263Y-121962608D01*
X207945859Y-121727200D01*
X207925263Y-121491792D01*
X207864103Y-121263537D01*
X207764235Y-121049371D01*
X207628695Y-120855799D01*
X207506380Y-120733484D01*
X207475085Y-120680739D01*
X207472896Y-120619446D01*
X207500349Y-120564601D01*
X207550728Y-120529622D01*
X207682289Y-120480552D01*
X207797388Y-120394388D01*
X207883552Y-120279289D01*
X207933797Y-120144575D01*
X207940200Y-120085024D01*
X207940200Y-119437200D01*
X205240200Y-119437200D01*
X205240200Y-120085024D01*
X205246602Y-120144575D01*
X205296847Y-120279289D01*
X205383011Y-120394388D01*
X205498111Y-120480552D01*
X205629671Y-120529622D01*
X205680050Y-120564601D01*
X205707503Y-120619446D01*
X205705314Y-120680739D01*
X205674019Y-120733485D01*
X205551703Y-120855801D01*
X205416165Y-121049370D01*
X205316297Y-121263536D01*
X205255136Y-121491792D01*
X205234540Y-121727200D01*
X205255136Y-121962607D01*
X205299909Y-122129701D01*
X205316297Y-122190863D01*
X205416165Y-122405030D01*
X205551705Y-122598601D01*
X205718799Y-122765695D01*
X205904360Y-122895626D01*
X205943224Y-122939943D01*
X205957235Y-122997200D01*
X205943224Y-123054457D01*
X205904359Y-123098775D01*
X205718795Y-123228708D01*
X205551705Y-123395798D01*
X205416165Y-123589370D01*
X205316297Y-123803536D01*
X205255136Y-124031792D01*
X205234540Y-124267199D01*
X205255136Y-124502607D01*
X205299909Y-124669701D01*
X205316297Y-124730863D01*
X205416165Y-124945030D01*
X205551705Y-125138601D01*
X205718799Y-125305695D01*
X205904360Y-125435626D01*
X205943224Y-125479943D01*
X205957235Y-125537200D01*
X205943224Y-125594457D01*
X205904359Y-125638775D01*
X205718795Y-125768708D01*
X205551705Y-125935798D01*
X205416165Y-126129370D01*
X205316297Y-126343536D01*
X205255136Y-126571792D01*
X205234540Y-126807199D01*
X205255136Y-127042607D01*
X205299909Y-127209701D01*
X205316297Y-127270863D01*
X205416165Y-127485030D01*
X205551705Y-127678601D01*
X205718799Y-127845695D01*
X205904360Y-127975626D01*
X205943224Y-128019943D01*
X205957235Y-128077200D01*
X205943224Y-128134457D01*
X205904359Y-128178775D01*
X205718795Y-128308708D01*
X205551705Y-128475798D01*
X205416165Y-128669370D01*
X205316297Y-128883536D01*
X205255136Y-129111792D01*
X205234540Y-129347200D01*
X205255136Y-129582607D01*
X205299909Y-129749702D01*
X205316297Y-129810863D01*
X205416165Y-130025030D01*
X205551705Y-130218601D01*
X205551708Y-130218604D01*
X205673630Y-130340526D01*
X205704926Y-130393272D01*
X205707115Y-130454565D01*
X205679662Y-130509409D01*
X205629283Y-130544389D01*
X205497869Y-130593404D01*
X205382654Y-130679654D01*
X205296404Y-130794868D01*
X205246109Y-130929716D01*
X205239700Y-130989330D01*
X205239700Y-132785069D01*
X205246109Y-132844684D01*
X205263100Y-132890239D01*
X205296404Y-132979531D01*
X205382654Y-133094746D01*
X205497869Y-133180996D01*
X205610107Y-133222858D01*
X205629282Y-133230010D01*
X205679662Y-133264989D01*
X205707115Y-133319834D01*
X205704926Y-133381126D01*
X205673631Y-133433873D01*
X205551703Y-133555801D01*
X205416165Y-133749370D01*
X205316297Y-133963536D01*
X205255136Y-134191792D01*
X205234540Y-134427200D01*
X205255136Y-134662607D01*
X205289070Y-134789249D01*
X205316297Y-134890863D01*
X205416165Y-135105030D01*
X205551705Y-135298601D01*
X205718799Y-135465695D01*
X205904360Y-135595626D01*
X205943224Y-135639943D01*
X205957235Y-135697200D01*
X205943224Y-135754457D01*
X205904360Y-135798774D01*
X205747547Y-135908576D01*
X205718795Y-135928708D01*
X205551705Y-136095798D01*
X205416165Y-136289370D01*
X205316297Y-136503536D01*
X205255136Y-136731792D01*
X205234540Y-136967199D01*
X201820489Y-136967199D01*
X201829498Y-136896854D01*
X201828491Y-136873160D01*
X201828802Y-136857681D01*
X201830500Y-136837200D01*
X201823448Y-136752102D01*
X201823138Y-136747144D01*
X201822486Y-136731792D01*
X201819380Y-136658668D01*
X201815107Y-136638842D01*
X201812747Y-136622956D01*
X201811334Y-136605895D01*
X201789528Y-136519789D01*
X201788536Y-136515554D01*
X201769154Y-136425619D01*
X201762865Y-136409970D01*
X201757721Y-136394189D01*
X201754357Y-136380900D01*
X201717302Y-136296424D01*
X201715821Y-136292896D01*
X201712028Y-136283458D01*
X201687180Y-136221620D01*
X201680266Y-136204414D01*
X201680264Y-136204410D01*
X201673216Y-136192964D01*
X201665251Y-136177761D01*
X201661124Y-136168351D01*
X201608828Y-136088306D01*
X201607079Y-136085550D01*
X201555269Y-136001405D01*
X201548654Y-135993889D01*
X201537930Y-135979788D01*
X201534180Y-135974049D01*
X201534179Y-135974047D01*
X201467076Y-135901153D01*
X201465268Y-135899144D01*
X201397764Y-135822445D01*
X201396453Y-135821386D01*
X201392639Y-135818306D01*
X201379315Y-135805819D01*
X201376985Y-135803288D01*
X201371185Y-135798774D01*
X201300324Y-135743621D01*
X201296136Y-135740361D01*
X201294399Y-135738983D01*
X201212282Y-135672677D01*
X201209515Y-135671132D01*
X201193837Y-135660738D01*
X201193826Y-135660729D01*
X201100752Y-135610361D01*
X201099409Y-135609623D01*
X201004154Y-135556410D01*
X201004147Y-135556407D01*
X201003953Y-135556299D01*
X200992601Y-135551259D01*
X200942144Y-135533937D01*
X200886452Y-135514817D01*
X200885433Y-135514463D01*
X200776402Y-135475939D01*
X200658972Y-135456344D01*
X200658426Y-135456251D01*
X200544402Y-135436700D01*
X200544400Y-135436700D01*
X200541249Y-135436700D01*
X200309151Y-135436700D01*
X200309149Y-135436700D01*
X200255191Y-135445703D01*
X200245302Y-135446947D01*
X200187660Y-135451853D01*
X200138277Y-135464711D01*
X200127449Y-135467019D01*
X200080223Y-135474901D01*
X200080221Y-135474901D01*
X200080219Y-135474902D01*
X200025256Y-135493770D01*
X200016252Y-135496484D01*
X199956948Y-135511925D01*
X199913561Y-135531537D01*
X199902754Y-135535824D01*
X199860696Y-135550263D01*
X199806595Y-135579541D01*
X199798660Y-135583476D01*
X199739709Y-135610125D01*
X199703082Y-135634879D01*
X199692670Y-135641194D01*
X199656573Y-135660729D01*
X199605324Y-135700617D01*
X199598602Y-135705496D01*
X199542199Y-135743618D01*
X199512749Y-135771843D01*
X199503119Y-135780167D01*
X199473416Y-135803287D01*
X199473414Y-135803288D01*
X199473414Y-135803289D01*
X199427126Y-135853569D01*
X199421700Y-135859105D01*
X199370083Y-135908576D01*
X199347859Y-135938626D01*
X199339396Y-135948870D01*
X199316223Y-135974043D01*
X199276982Y-136034105D01*
X199272871Y-136040015D01*
X199228319Y-136100254D01*
X199213026Y-136130584D01*
X199206117Y-136142571D01*
X199189277Y-136168347D01*
X199173457Y-136204414D01*
X199165910Y-136221620D01*
X199159087Y-136237174D01*
X199156254Y-136243187D01*
X199120992Y-136313125D01*
X199112047Y-136342331D01*
X199107042Y-136355820D01*
X199096044Y-136380895D01*
X199076752Y-136457071D01*
X199075112Y-136462936D01*
X199051183Y-136541075D01*
X199047738Y-136567975D01*
X199044950Y-136582655D01*
X199039065Y-136605897D01*
X199032297Y-136687577D01*
X199031717Y-136693086D01*
X199020901Y-136777548D01*
X199021907Y-136801225D01*
X199021596Y-136816720D01*
X199019899Y-136837198D01*
X196380500Y-136837198D01*
X196373448Y-136752102D01*
X196373138Y-136747144D01*
X196372486Y-136731792D01*
X196369380Y-136658668D01*
X196365107Y-136638842D01*
X196362747Y-136622956D01*
X196361334Y-136605895D01*
X196339528Y-136519789D01*
X196338536Y-136515554D01*
X196319154Y-136425619D01*
X196312865Y-136409970D01*
X196307721Y-136394189D01*
X196304357Y-136380900D01*
X196267302Y-136296424D01*
X196265821Y-136292896D01*
X196262028Y-136283458D01*
X196237180Y-136221620D01*
X196230266Y-136204414D01*
X196230264Y-136204410D01*
X196223216Y-136192964D01*
X196215251Y-136177761D01*
X196211124Y-136168351D01*
X196158828Y-136088306D01*
X196157079Y-136085550D01*
X196105269Y-136001405D01*
X196098654Y-135993889D01*
X196087930Y-135979788D01*
X196084180Y-135974049D01*
X196084179Y-135974047D01*
X196017076Y-135901153D01*
X196015268Y-135899144D01*
X195947764Y-135822445D01*
X195946453Y-135821386D01*
X195942639Y-135818306D01*
X195929315Y-135805819D01*
X195926985Y-135803288D01*
X195921185Y-135798774D01*
X195850324Y-135743621D01*
X195846136Y-135740361D01*
X195844399Y-135738983D01*
X195762282Y-135672677D01*
X195759515Y-135671132D01*
X195743837Y-135660738D01*
X195743826Y-135660729D01*
X195650752Y-135610361D01*
X195649409Y-135609623D01*
X195554154Y-135556410D01*
X195554147Y-135556407D01*
X195553953Y-135556299D01*
X195542601Y-135551259D01*
X195492144Y-135533937D01*
X195436452Y-135514817D01*
X195435433Y-135514463D01*
X195326402Y-135475939D01*
X195208972Y-135456344D01*
X195208426Y-135456251D01*
X195094402Y-135436700D01*
X195094400Y-135436700D01*
X195091249Y-135436700D01*
X194859151Y-135436700D01*
X194859149Y-135436700D01*
X194805191Y-135445703D01*
X194795302Y-135446947D01*
X194737660Y-135451853D01*
X194688277Y-135464711D01*
X194677449Y-135467019D01*
X194630223Y-135474901D01*
X194630221Y-135474901D01*
X194630219Y-135474902D01*
X194575256Y-135493770D01*
X194566252Y-135496484D01*
X194506948Y-135511925D01*
X194463561Y-135531537D01*
X194452754Y-135535824D01*
X194410696Y-135550263D01*
X194356595Y-135579541D01*
X194348660Y-135583476D01*
X194289709Y-135610125D01*
X194253082Y-135634879D01*
X194242670Y-135641194D01*
X194206573Y-135660729D01*
X194155324Y-135700617D01*
X194148602Y-135705496D01*
X194092199Y-135743618D01*
X194062749Y-135771843D01*
X194053119Y-135780167D01*
X194023416Y-135803287D01*
X194023414Y-135803288D01*
X194023414Y-135803289D01*
X193977126Y-135853569D01*
X193971700Y-135859105D01*
X193920083Y-135908576D01*
X193897859Y-135938626D01*
X193889396Y-135948870D01*
X193866223Y-135974043D01*
X193826982Y-136034105D01*
X193822871Y-136040015D01*
X193778319Y-136100254D01*
X193763026Y-136130584D01*
X193756117Y-136142571D01*
X193739277Y-136168347D01*
X193723457Y-136204414D01*
X193715910Y-136221620D01*
X193709087Y-136237174D01*
X193706254Y-136243187D01*
X193670992Y-136313125D01*
X193662047Y-136342331D01*
X193657042Y-136355820D01*
X193646044Y-136380895D01*
X193626752Y-136457071D01*
X193625112Y-136462936D01*
X193601183Y-136541075D01*
X193597738Y-136567975D01*
X193594950Y-136582655D01*
X193589065Y-136605897D01*
X193582297Y-136687577D01*
X193581717Y-136693086D01*
X193570901Y-136777548D01*
X193571907Y-136801225D01*
X193571596Y-136816720D01*
X193569899Y-136837198D01*
X190154485Y-136837198D01*
X190145263Y-136731792D01*
X190125670Y-136658669D01*
X190084103Y-136503537D01*
X189984235Y-136289371D01*
X189848695Y-136095799D01*
X189681601Y-135928705D01*
X189496039Y-135798773D01*
X189457174Y-135754455D01*
X189443164Y-135697199D01*
X189457175Y-135639942D01*
X189496037Y-135595628D01*
X189681601Y-135465695D01*
X189848695Y-135298601D01*
X189984235Y-135105030D01*
X190084103Y-134890863D01*
X190145263Y-134662608D01*
X190165859Y-134427200D01*
X190145263Y-134191792D01*
X190084103Y-133963537D01*
X190011201Y-133807200D01*
X194019923Y-133807200D01*
X194021532Y-133825600D01*
X194021878Y-133841953D01*
X194020909Y-133863528D01*
X194031644Y-133942776D01*
X194032294Y-133948613D01*
X194038992Y-134025176D01*
X194044661Y-134046332D01*
X194047764Y-134061778D01*
X194051125Y-134086590D01*
X194074773Y-134159370D01*
X194076616Y-134165593D01*
X194095623Y-134236527D01*
X194106335Y-134259498D01*
X194111883Y-134273583D01*
X194120681Y-134300660D01*
X194155328Y-134365047D01*
X194158514Y-134371399D01*
X194188096Y-134434837D01*
X194204606Y-134458415D01*
X194212223Y-134470775D01*
X194227348Y-134498881D01*
X194270788Y-134553353D01*
X194275414Y-134559540D01*
X194313603Y-134614078D01*
X194336386Y-134636861D01*
X194345652Y-134647229D01*
X194367693Y-134674867D01*
X194417587Y-134718459D01*
X194423684Y-134724159D01*
X194468323Y-134768798D01*
X194497530Y-134789249D01*
X194507993Y-134797444D01*
X194527785Y-134814735D01*
X194537204Y-134822965D01*
X194591140Y-134855190D01*
X194598635Y-134860043D01*
X194647561Y-134894302D01*
X194657690Y-134899025D01*
X194682999Y-134910828D01*
X194694191Y-134916760D01*
X194730436Y-134938415D01*
X194730439Y-134938416D01*
X194786039Y-134959283D01*
X194794869Y-134962992D01*
X194839203Y-134983666D01*
X194845870Y-134986775D01*
X194886957Y-134997784D01*
X194898435Y-135001466D01*
X194910103Y-135005845D01*
X194941176Y-135017507D01*
X194996224Y-135027496D01*
X195006170Y-135029727D01*
X195057223Y-135043407D01*
X195101333Y-135047265D01*
X195103014Y-135047413D01*
X195114348Y-135048933D01*
X195162653Y-135057700D01*
X195215185Y-135057700D01*
X195225991Y-135058171D01*
X195275200Y-135062477D01*
X195324408Y-135058171D01*
X195327711Y-135058027D01*
X195331345Y-135057700D01*
X195331355Y-135057700D01*
X195385372Y-135052838D01*
X195385380Y-135052927D01*
X195385679Y-135052811D01*
X195493177Y-135043407D01*
X195493177Y-135043406D01*
X195497863Y-135042997D01*
X195499383Y-135042577D01*
X195499388Y-135042577D01*
X195602926Y-135014000D01*
X195603613Y-135013814D01*
X195649700Y-135001466D01*
X195709577Y-134985423D01*
X195714348Y-134983666D01*
X195716366Y-134982694D01*
X195716370Y-134982693D01*
X195810151Y-134937529D01*
X195811207Y-134937030D01*
X195902839Y-134894302D01*
X195902845Y-134894297D01*
X195904592Y-134893483D01*
X195918355Y-134885422D01*
X195919173Y-134885029D01*
X196000524Y-134825922D01*
X196002243Y-134824697D01*
X196082071Y-134768803D01*
X196082073Y-134768800D01*
X196082077Y-134768798D01*
X196082948Y-134767926D01*
X196097743Y-134755289D01*
X196101278Y-134752722D01*
X196168437Y-134682477D01*
X196170297Y-134680577D01*
X196236793Y-134614082D01*
X196236793Y-134614081D01*
X196236798Y-134614077D01*
X196239485Y-134610239D01*
X196251432Y-134595671D01*
X196256832Y-134590025D01*
X196308488Y-134511766D01*
X196310282Y-134509129D01*
X196362302Y-134434839D01*
X196365739Y-134427467D01*
X196374634Y-134411562D01*
X196374785Y-134411332D01*
X196380835Y-134402168D01*
X196416314Y-134319158D01*
X196417913Y-134315577D01*
X196454775Y-134236530D01*
X196457772Y-134225343D01*
X196463524Y-134208708D01*
X196469302Y-134195190D01*
X196469301Y-134195190D01*
X196469303Y-134195188D01*
X196488634Y-134110491D01*
X196489733Y-134106063D01*
X196494952Y-134086587D01*
X196511407Y-134025177D01*
X196512716Y-134010205D01*
X196515353Y-133993427D01*
X196519391Y-133975737D01*
X196523134Y-133892383D01*
X196523474Y-133887239D01*
X196530477Y-133807200D01*
X198869923Y-133807200D01*
X198871532Y-133825600D01*
X198871878Y-133841953D01*
X198870909Y-133863528D01*
X198881644Y-133942776D01*
X198882294Y-133948613D01*
X198888992Y-134025176D01*
X198894661Y-134046332D01*
X198897764Y-134061778D01*
X198901125Y-134086590D01*
X198924773Y-134159370D01*
X198926616Y-134165593D01*
X198945623Y-134236527D01*
X198956335Y-134259498D01*
X198961883Y-134273583D01*
X198970681Y-134300660D01*
X199005328Y-134365047D01*
X199008514Y-134371399D01*
X199038096Y-134434837D01*
X199054606Y-134458415D01*
X199062223Y-134470775D01*
X199077348Y-134498881D01*
X199120788Y-134553353D01*
X199125414Y-134559540D01*
X199163603Y-134614078D01*
X199186386Y-134636861D01*
X199195652Y-134647229D01*
X199217693Y-134674867D01*
X199267587Y-134718459D01*
X199273684Y-134724159D01*
X199318323Y-134768798D01*
X199347530Y-134789249D01*
X199357993Y-134797444D01*
X199377785Y-134814735D01*
X199387204Y-134822965D01*
X199441140Y-134855190D01*
X199448635Y-134860043D01*
X199497561Y-134894302D01*
X199507690Y-134899025D01*
X199532999Y-134910828D01*
X199544191Y-134916760D01*
X199580436Y-134938415D01*
X199580439Y-134938416D01*
X199636039Y-134959283D01*
X199644869Y-134962992D01*
X199689203Y-134983666D01*
X199695870Y-134986775D01*
X199736957Y-134997784D01*
X199748435Y-135001466D01*
X199760103Y-135005845D01*
X199791176Y-135017507D01*
X199846224Y-135027496D01*
X199856170Y-135029727D01*
X199907223Y-135043407D01*
X199951333Y-135047265D01*
X199953014Y-135047413D01*
X199964348Y-135048933D01*
X200012653Y-135057700D01*
X200065185Y-135057700D01*
X200075991Y-135058171D01*
X200125200Y-135062477D01*
X200174408Y-135058171D01*
X200177711Y-135058027D01*
X200181345Y-135057700D01*
X200181355Y-135057700D01*
X200235372Y-135052838D01*
X200235380Y-135052927D01*
X200235679Y-135052811D01*
X200343177Y-135043407D01*
X200343177Y-135043406D01*
X200347863Y-135042997D01*
X200349383Y-135042577D01*
X200349388Y-135042577D01*
X200452926Y-135014000D01*
X200453613Y-135013814D01*
X200499700Y-135001466D01*
X200559577Y-134985423D01*
X200564348Y-134983666D01*
X200566366Y-134982694D01*
X200566370Y-134982693D01*
X200660151Y-134937529D01*
X200661207Y-134937030D01*
X200752839Y-134894302D01*
X200752845Y-134894297D01*
X200754592Y-134893483D01*
X200768355Y-134885422D01*
X200769173Y-134885029D01*
X200850524Y-134825922D01*
X200852243Y-134824697D01*
X200932071Y-134768803D01*
X200932073Y-134768800D01*
X200932077Y-134768798D01*
X200932948Y-134767926D01*
X200947743Y-134755289D01*
X200951278Y-134752722D01*
X201018437Y-134682477D01*
X201020297Y-134680577D01*
X201086793Y-134614082D01*
X201086793Y-134614081D01*
X201086798Y-134614077D01*
X201089485Y-134610239D01*
X201101432Y-134595671D01*
X201106832Y-134590025D01*
X201158488Y-134511766D01*
X201160282Y-134509129D01*
X201212302Y-134434839D01*
X201215739Y-134427467D01*
X201224634Y-134411562D01*
X201224785Y-134411332D01*
X201230835Y-134402168D01*
X201266314Y-134319158D01*
X201267913Y-134315577D01*
X201304775Y-134236530D01*
X201307772Y-134225343D01*
X201313524Y-134208708D01*
X201319302Y-134195190D01*
X201319301Y-134195190D01*
X201319303Y-134195188D01*
X201338634Y-134110491D01*
X201339733Y-134106063D01*
X201344952Y-134086587D01*
X201361407Y-134025177D01*
X201362716Y-134010205D01*
X201365353Y-133993427D01*
X201369391Y-133975737D01*
X201373134Y-133892383D01*
X201373474Y-133887239D01*
X201380477Y-133807200D01*
X201378867Y-133788808D01*
X201378521Y-133772438D01*
X201379490Y-133750870D01*
X201368749Y-133671585D01*
X201368105Y-133665796D01*
X201362717Y-133604193D01*
X201361408Y-133589227D01*
X201361406Y-133589220D01*
X201355736Y-133568060D01*
X201352634Y-133552614D01*
X201349275Y-133527814D01*
X201341491Y-133503859D01*
X201325621Y-133455016D01*
X201323778Y-133448792D01*
X201307678Y-133388705D01*
X201304775Y-133377870D01*
X201294065Y-133354904D01*
X201288517Y-133340819D01*
X201279717Y-133313735D01*
X201245069Y-133249348D01*
X201241881Y-133242994D01*
X201212302Y-133179562D01*
X201212301Y-133179561D01*
X201195791Y-133155982D01*
X201188175Y-133143623D01*
X201173052Y-133115519D01*
X201129604Y-133061037D01*
X201124985Y-133054861D01*
X201086798Y-133000323D01*
X201064004Y-132977529D01*
X201054746Y-132967169D01*
X201032708Y-132939534D01*
X201026167Y-132933819D01*
X200982811Y-132895939D01*
X200976714Y-132890239D01*
X200932078Y-132845602D01*
X200902864Y-132825147D01*
X200892410Y-132816959D01*
X200863196Y-132791435D01*
X200860356Y-132789738D01*
X200809273Y-132759217D01*
X200801750Y-132754345D01*
X200752840Y-132720098D01*
X200731243Y-132710027D01*
X200717401Y-132703572D01*
X200706214Y-132697642D01*
X200669964Y-132675984D01*
X200614371Y-132655121D01*
X200605549Y-132651416D01*
X200554530Y-132627625D01*
X200554528Y-132627624D01*
X200526775Y-132620187D01*
X200513428Y-132616611D01*
X200501962Y-132612932D01*
X200459224Y-132596893D01*
X200415836Y-132589018D01*
X200404164Y-132586900D01*
X200394218Y-132584668D01*
X200343180Y-132570993D01*
X200297375Y-132566985D01*
X200286046Y-132565464D01*
X200237750Y-132556700D01*
X200237747Y-132556700D01*
X200185215Y-132556700D01*
X200174408Y-132556228D01*
X200170988Y-132555928D01*
X200125200Y-132551922D01*
X200079411Y-132555928D01*
X200075991Y-132556228D01*
X200072681Y-132556372D01*
X200015116Y-132561552D01*
X200014812Y-132561579D01*
X199902532Y-132571403D01*
X199797722Y-132600329D01*
X199796827Y-132600573D01*
X199690860Y-132628967D01*
X199686009Y-132630753D01*
X199590446Y-132676773D01*
X199589053Y-132677433D01*
X199495834Y-132720903D01*
X199482075Y-132728962D01*
X199481230Y-132729369D01*
X199399862Y-132788484D01*
X199398104Y-132789738D01*
X199318318Y-132845605D01*
X199317435Y-132846489D01*
X199302667Y-132859101D01*
X199299123Y-132861676D01*
X199232046Y-132931832D01*
X199230103Y-132933819D01*
X199163601Y-133000322D01*
X199160908Y-133004168D01*
X199148976Y-133018717D01*
X199143570Y-133024372D01*
X199091975Y-133102533D01*
X199090066Y-133105341D01*
X199038097Y-133179563D01*
X199034660Y-133186934D01*
X199025771Y-133202829D01*
X199019564Y-133212232D01*
X198984093Y-133295221D01*
X198982460Y-133298876D01*
X198975531Y-133313736D01*
X198945623Y-133377873D01*
X198942626Y-133389056D01*
X198936880Y-133405678D01*
X198931097Y-133419209D01*
X198911776Y-133503859D01*
X198910660Y-133508357D01*
X198888993Y-133589220D01*
X198887683Y-133604193D01*
X198885047Y-133620967D01*
X198881009Y-133638660D01*
X198877266Y-133721977D01*
X198876919Y-133727216D01*
X198871531Y-133788813D01*
X198869923Y-133807200D01*
X196530477Y-133807200D01*
X196528867Y-133788808D01*
X196528521Y-133772438D01*
X196529490Y-133750870D01*
X196518749Y-133671585D01*
X196518105Y-133665796D01*
X196512717Y-133604193D01*
X196511408Y-133589227D01*
X196511406Y-133589220D01*
X196505736Y-133568060D01*
X196502634Y-133552614D01*
X196499275Y-133527814D01*
X196491491Y-133503859D01*
X196475621Y-133455016D01*
X196473778Y-133448792D01*
X196457678Y-133388705D01*
X196454775Y-133377870D01*
X196444065Y-133354904D01*
X196438517Y-133340819D01*
X196429717Y-133313735D01*
X196395069Y-133249348D01*
X196391881Y-133242994D01*
X196362302Y-133179562D01*
X196362301Y-133179561D01*
X196345791Y-133155982D01*
X196338175Y-133143623D01*
X196323052Y-133115519D01*
X196279604Y-133061037D01*
X196274985Y-133054861D01*
X196236798Y-133000323D01*
X196214004Y-132977529D01*
X196204746Y-132967169D01*
X196182708Y-132939534D01*
X196176167Y-132933819D01*
X196132811Y-132895939D01*
X196126714Y-132890239D01*
X196082078Y-132845602D01*
X196052864Y-132825147D01*
X196042410Y-132816959D01*
X196013196Y-132791435D01*
X196010356Y-132789738D01*
X195959273Y-132759217D01*
X195951750Y-132754345D01*
X195902840Y-132720098D01*
X195881243Y-132710027D01*
X195867401Y-132703572D01*
X195856214Y-132697642D01*
X195819964Y-132675984D01*
X195764371Y-132655121D01*
X195755549Y-132651416D01*
X195704530Y-132627625D01*
X195704528Y-132627624D01*
X195676775Y-132620187D01*
X195663428Y-132616611D01*
X195651962Y-132612932D01*
X195609224Y-132596893D01*
X195565836Y-132589018D01*
X195554164Y-132586900D01*
X195544218Y-132584668D01*
X195493180Y-132570993D01*
X195447375Y-132566985D01*
X195436046Y-132565464D01*
X195387750Y-132556700D01*
X195387747Y-132556700D01*
X195335215Y-132556700D01*
X195324408Y-132556228D01*
X195320988Y-132555928D01*
X195275200Y-132551922D01*
X195229411Y-132555928D01*
X195225991Y-132556228D01*
X195222681Y-132556372D01*
X195165116Y-132561552D01*
X195164812Y-132561579D01*
X195052532Y-132571403D01*
X194947722Y-132600329D01*
X194946827Y-132600573D01*
X194840860Y-132628967D01*
X194836009Y-132630753D01*
X194740446Y-132676773D01*
X194739053Y-132677433D01*
X194645834Y-132720903D01*
X194632075Y-132728962D01*
X194631230Y-132729369D01*
X194549862Y-132788484D01*
X194548104Y-132789738D01*
X194468318Y-132845605D01*
X194467435Y-132846489D01*
X194452667Y-132859101D01*
X194449123Y-132861676D01*
X194382046Y-132931832D01*
X194380103Y-132933819D01*
X194313601Y-133000322D01*
X194310908Y-133004168D01*
X194298976Y-133018717D01*
X194293570Y-133024372D01*
X194241975Y-133102533D01*
X194240066Y-133105341D01*
X194188097Y-133179563D01*
X194184660Y-133186934D01*
X194175771Y-133202829D01*
X194169564Y-133212232D01*
X194134093Y-133295221D01*
X194132460Y-133298876D01*
X194125531Y-133313736D01*
X194095623Y-133377873D01*
X194092626Y-133389056D01*
X194086880Y-133405678D01*
X194081097Y-133419209D01*
X194061776Y-133503859D01*
X194060660Y-133508357D01*
X194038993Y-133589220D01*
X194037683Y-133604193D01*
X194035047Y-133620967D01*
X194031009Y-133638660D01*
X194027266Y-133721977D01*
X194026919Y-133727216D01*
X194021531Y-133788813D01*
X194019923Y-133807200D01*
X190011201Y-133807200D01*
X189984235Y-133749371D01*
X189848695Y-133555799D01*
X189726381Y-133433485D01*
X189695085Y-133380739D01*
X189692896Y-133319446D01*
X189720349Y-133264601D01*
X189770728Y-133229622D01*
X189902289Y-133180552D01*
X190017388Y-133094388D01*
X190103552Y-132979289D01*
X190153797Y-132844575D01*
X190160200Y-132785024D01*
X190160200Y-132137200D01*
X187460200Y-132137200D01*
X187460200Y-132785024D01*
X187466602Y-132844575D01*
X187516847Y-132979289D01*
X187603011Y-133094388D01*
X187718111Y-133180552D01*
X187849671Y-133229622D01*
X187900050Y-133264601D01*
X187927503Y-133319446D01*
X187925314Y-133380739D01*
X187894019Y-133433485D01*
X187771703Y-133555801D01*
X187636165Y-133749370D01*
X187536297Y-133963536D01*
X187475136Y-134191792D01*
X187454540Y-134427200D01*
X187475136Y-134662607D01*
X187509070Y-134789249D01*
X187536297Y-134890863D01*
X187636165Y-135105030D01*
X187771705Y-135298601D01*
X187938799Y-135465695D01*
X188124360Y-135595626D01*
X188163224Y-135639943D01*
X188177235Y-135697200D01*
X188163224Y-135754457D01*
X188124360Y-135798774D01*
X187967547Y-135908576D01*
X187938795Y-135928708D01*
X187771705Y-136095798D01*
X187636165Y-136289370D01*
X187536297Y-136503536D01*
X187475136Y-136731792D01*
X187454540Y-136967199D01*
X182817859Y-136967199D01*
X182862545Y-136893279D01*
X182996627Y-136595361D01*
X183093821Y-136283453D01*
X183152710Y-135962104D01*
X183172436Y-135636000D01*
X183152710Y-135309896D01*
X183093821Y-134988547D01*
X182996627Y-134676639D01*
X182862545Y-134378721D01*
X182693530Y-134099137D01*
X182492048Y-133841964D01*
X182261036Y-133610952D01*
X182003863Y-133409470D01*
X181724279Y-133240455D01*
X181426361Y-133106373D01*
X181426359Y-133106372D01*
X181426354Y-133106370D01*
X181114458Y-133009180D01*
X181087108Y-133004168D01*
X180793104Y-132950290D01*
X180793103Y-132950289D01*
X180467000Y-132930563D01*
X180140895Y-132950290D01*
X179819541Y-133009180D01*
X179507645Y-133106370D01*
X179209720Y-133240455D01*
X178930136Y-133409470D01*
X178672961Y-133610954D01*
X178441954Y-133841961D01*
X178240470Y-134099136D01*
X178071455Y-134378720D01*
X177937370Y-134676645D01*
X177840180Y-134988541D01*
X177781290Y-135309895D01*
X177761563Y-135635999D01*
X153931380Y-135635999D01*
X153929869Y-131700869D01*
X155719500Y-131700869D01*
X155725909Y-131760484D01*
X155746404Y-131815433D01*
X155776204Y-131895331D01*
X155862454Y-132010546D01*
X155977669Y-132096796D01*
X156112517Y-132147091D01*
X156172127Y-132153500D01*
X158867872Y-132153499D01*
X158927483Y-132147091D01*
X159062331Y-132096796D01*
X159177546Y-132010546D01*
X159263796Y-131895331D01*
X159314091Y-131760483D01*
X159320500Y-131700873D01*
X159320499Y-130353000D01*
X160714450Y-130353000D01*
X160734616Y-130622100D01*
X160747834Y-130680011D01*
X160794666Y-130885195D01*
X160893257Y-131136398D01*
X161028185Y-131370102D01*
X161196439Y-131581085D01*
X161394259Y-131764635D01*
X161617226Y-131916651D01*
X161860359Y-132033738D01*
X162118228Y-132113280D01*
X162385071Y-132153500D01*
X162654929Y-132153500D01*
X162921772Y-132113280D01*
X163179641Y-132033738D01*
X163422775Y-131916651D01*
X163645741Y-131764635D01*
X163659715Y-131751669D01*
X167759100Y-131751669D01*
X167765509Y-131811284D01*
X167790656Y-131878707D01*
X167815804Y-131946131D01*
X167902054Y-132061346D01*
X168017269Y-132147596D01*
X168152117Y-132197891D01*
X168211727Y-132204300D01*
X170907472Y-132204299D01*
X170967083Y-132197891D01*
X171101931Y-132147596D01*
X171217146Y-132061346D01*
X171303396Y-131946131D01*
X171353691Y-131811283D01*
X171360100Y-131751673D01*
X171360099Y-130403799D01*
X172754050Y-130403799D01*
X172774216Y-130672900D01*
X172774217Y-130672903D01*
X172834266Y-130935995D01*
X172932857Y-131187198D01*
X173067785Y-131420902D01*
X173236039Y-131631885D01*
X173433859Y-131815435D01*
X173656826Y-131967451D01*
X173899959Y-132084538D01*
X174157828Y-132164080D01*
X174424671Y-132204300D01*
X174694529Y-132204300D01*
X174961372Y-132164080D01*
X175219241Y-132084538D01*
X175462375Y-131967451D01*
X175685341Y-131815435D01*
X175883161Y-131631885D01*
X176051415Y-131420902D01*
X176186343Y-131187198D01*
X176284934Y-130935995D01*
X176344983Y-130672903D01*
X176365149Y-130403800D01*
X176344983Y-130134697D01*
X176284934Y-129871605D01*
X176186343Y-129620402D01*
X176051415Y-129386698D01*
X176019916Y-129347200D01*
X187454540Y-129347200D01*
X187475136Y-129582607D01*
X187519909Y-129749702D01*
X187536297Y-129810863D01*
X187636165Y-130025030D01*
X187771705Y-130218601D01*
X187771708Y-130218604D01*
X187894018Y-130340914D01*
X187925314Y-130393660D01*
X187927503Y-130454953D01*
X187900050Y-130509797D01*
X187849672Y-130544776D01*
X187718113Y-130593846D01*
X187603011Y-130680011D01*
X187516847Y-130795110D01*
X187466602Y-130929824D01*
X187460200Y-130989376D01*
X187460200Y-131637200D01*
X190160200Y-131637200D01*
X190160200Y-130989376D01*
X190153797Y-130929824D01*
X190103552Y-130795110D01*
X190017388Y-130680011D01*
X189902288Y-130593847D01*
X189770728Y-130544777D01*
X189720349Y-130509797D01*
X189692896Y-130454952D01*
X189695085Y-130393660D01*
X189726378Y-130340917D01*
X189848695Y-130218601D01*
X189984235Y-130025030D01*
X190084103Y-129810863D01*
X190145263Y-129582608D01*
X190165859Y-129347200D01*
X190145263Y-129111792D01*
X190084103Y-128883537D01*
X189984235Y-128669371D01*
X189848695Y-128475799D01*
X189681601Y-128308705D01*
X189496039Y-128178773D01*
X189457176Y-128134457D01*
X189443165Y-128077200D01*
X189457176Y-128019943D01*
X189496039Y-127975626D01*
X189681601Y-127845695D01*
X189848695Y-127678601D01*
X189984235Y-127485030D01*
X190084103Y-127270863D01*
X190145263Y-127042608D01*
X190165859Y-126807200D01*
X190145263Y-126571792D01*
X190084103Y-126343537D01*
X189984235Y-126129371D01*
X189848695Y-125935799D01*
X189681601Y-125768705D01*
X189496039Y-125638773D01*
X189457176Y-125594457D01*
X189443165Y-125537200D01*
X189457176Y-125479943D01*
X189496039Y-125435626D01*
X189681601Y-125305695D01*
X189848695Y-125138601D01*
X189984235Y-124945030D01*
X190084103Y-124730863D01*
X190145263Y-124502608D01*
X190165859Y-124267200D01*
X190145263Y-124031792D01*
X190084103Y-123803537D01*
X189984235Y-123589371D01*
X189848695Y-123395799D01*
X189681601Y-123228705D01*
X189496039Y-123098773D01*
X189457175Y-123054457D01*
X189443164Y-122997200D01*
X189457175Y-122939943D01*
X189496039Y-122895626D01*
X189681601Y-122765695D01*
X189848695Y-122598601D01*
X189984235Y-122405030D01*
X190084103Y-122190863D01*
X190145263Y-121962608D01*
X190165859Y-121727200D01*
X190145263Y-121491792D01*
X190084103Y-121263537D01*
X189984235Y-121049371D01*
X189848695Y-120855799D01*
X189726769Y-120733873D01*
X189695473Y-120681127D01*
X189693284Y-120619834D01*
X189720737Y-120564989D01*
X189771116Y-120530010D01*
X189902531Y-120480996D01*
X190017746Y-120394746D01*
X190103996Y-120279531D01*
X190154291Y-120144683D01*
X190160700Y-120085073D01*
X190160699Y-118289328D01*
X190154291Y-118229717D01*
X190103996Y-118094869D01*
X190017746Y-117979654D01*
X189902531Y-117893404D01*
X189841098Y-117870491D01*
X189771116Y-117844389D01*
X189720737Y-117809409D01*
X189693284Y-117754565D01*
X189695473Y-117693272D01*
X189726766Y-117640529D01*
X189848695Y-117518601D01*
X189984235Y-117325030D01*
X190084103Y-117110863D01*
X190145263Y-116882608D01*
X190165859Y-116647200D01*
X205234540Y-116647200D01*
X205255136Y-116882607D01*
X205281479Y-116980919D01*
X205316297Y-117110863D01*
X205416165Y-117325030D01*
X205551705Y-117518601D01*
X205551708Y-117518603D01*
X205551708Y-117518604D01*
X205674018Y-117640914D01*
X205705314Y-117693660D01*
X205707503Y-117754953D01*
X205680050Y-117809797D01*
X205629672Y-117844776D01*
X205498113Y-117893846D01*
X205383011Y-117980011D01*
X205296847Y-118095110D01*
X205246602Y-118229824D01*
X205240200Y-118289376D01*
X205240200Y-118937200D01*
X207940200Y-118937200D01*
X207940200Y-118741199D01*
X228724850Y-118741199D01*
X228745016Y-119010300D01*
X228745017Y-119010303D01*
X228805066Y-119273395D01*
X228903657Y-119524598D01*
X229038585Y-119758302D01*
X229206839Y-119969285D01*
X229404659Y-120152835D01*
X229627626Y-120304851D01*
X229870759Y-120421938D01*
X230128628Y-120501480D01*
X230395471Y-120541700D01*
X230665329Y-120541700D01*
X230932172Y-120501480D01*
X231190041Y-120421938D01*
X231433175Y-120304851D01*
X231656141Y-120152835D01*
X231853961Y-119969285D01*
X232022215Y-119758302D01*
X232157143Y-119524598D01*
X232255734Y-119273395D01*
X232315783Y-119010303D01*
X232335949Y-118741200D01*
X232315783Y-118472097D01*
X232255734Y-118209005D01*
X232157143Y-117957802D01*
X232022215Y-117724098D01*
X231853961Y-117513115D01*
X231853960Y-117513114D01*
X231656143Y-117329566D01*
X231598605Y-117290337D01*
X231433175Y-117177549D01*
X231190041Y-117060462D01*
X231110498Y-117035926D01*
X230932171Y-116980919D01*
X230665329Y-116940700D01*
X230395471Y-116940700D01*
X230128628Y-116980919D01*
X229870759Y-117060462D01*
X229627628Y-117177547D01*
X229404657Y-117329566D01*
X229206839Y-117513115D01*
X229038584Y-117724099D01*
X228903657Y-117957801D01*
X228805066Y-118209004D01*
X228745016Y-118472099D01*
X228724850Y-118741199D01*
X207940200Y-118741199D01*
X207940200Y-118289376D01*
X207933797Y-118229824D01*
X207883552Y-118095110D01*
X207797388Y-117980011D01*
X207682288Y-117893847D01*
X207550728Y-117844777D01*
X207500349Y-117809797D01*
X207472896Y-117754952D01*
X207475085Y-117693660D01*
X207506378Y-117640917D01*
X207628695Y-117518601D01*
X207764235Y-117325030D01*
X207864103Y-117110863D01*
X207925263Y-116882608D01*
X207945859Y-116647200D01*
X207925263Y-116411792D01*
X207864103Y-116183537D01*
X207764235Y-115969371D01*
X207628695Y-115775799D01*
X207461601Y-115608705D01*
X207276039Y-115478773D01*
X207237174Y-115434455D01*
X207223164Y-115377199D01*
X207237175Y-115319942D01*
X207276037Y-115275628D01*
X207461601Y-115145695D01*
X207628695Y-114978601D01*
X207764235Y-114785030D01*
X207864103Y-114570863D01*
X207925263Y-114342608D01*
X207945859Y-114107200D01*
X207925263Y-113871792D01*
X207890271Y-113741199D01*
X228724850Y-113741199D01*
X228745016Y-114010300D01*
X228745017Y-114010303D01*
X228805066Y-114273395D01*
X228903657Y-114524598D01*
X229038585Y-114758302D01*
X229206839Y-114969285D01*
X229404659Y-115152835D01*
X229627626Y-115304851D01*
X229870759Y-115421938D01*
X230128628Y-115501480D01*
X230395471Y-115541700D01*
X230665329Y-115541700D01*
X230932172Y-115501480D01*
X231190041Y-115421938D01*
X231433175Y-115304851D01*
X231656141Y-115152835D01*
X231853961Y-114969285D01*
X232022215Y-114758302D01*
X232157143Y-114524598D01*
X232255734Y-114273395D01*
X232315783Y-114010303D01*
X232335949Y-113741200D01*
X232315783Y-113472097D01*
X232255734Y-113209005D01*
X232157143Y-112957802D01*
X232022215Y-112724098D01*
X231853961Y-112513115D01*
X231853960Y-112513114D01*
X231656143Y-112329566D01*
X231532151Y-112245030D01*
X231433175Y-112177549D01*
X231190041Y-112060462D01*
X231110497Y-112035926D01*
X230932171Y-111980919D01*
X230665329Y-111940700D01*
X230395471Y-111940700D01*
X230128628Y-111980919D01*
X229870759Y-112060462D01*
X229627628Y-112177547D01*
X229404657Y-112329566D01*
X229206839Y-112513115D01*
X229038584Y-112724099D01*
X228903657Y-112957801D01*
X228805066Y-113209004D01*
X228745016Y-113472099D01*
X228724850Y-113741199D01*
X207890271Y-113741199D01*
X207864103Y-113643537D01*
X207764235Y-113429371D01*
X207628695Y-113235799D01*
X207461601Y-113068705D01*
X207276039Y-112938773D01*
X207237174Y-112894455D01*
X207223164Y-112837199D01*
X207237175Y-112779942D01*
X207276037Y-112735628D01*
X207461601Y-112605695D01*
X207628695Y-112438601D01*
X207764235Y-112245030D01*
X207864103Y-112030863D01*
X207925263Y-111802608D01*
X207945859Y-111567200D01*
X207925263Y-111331792D01*
X207864103Y-111103537D01*
X207764235Y-110889371D01*
X207628695Y-110695799D01*
X207461601Y-110528705D01*
X207276039Y-110398773D01*
X207237175Y-110354457D01*
X207223164Y-110297200D01*
X207237175Y-110239943D01*
X207276039Y-110195626D01*
X207461601Y-110065695D01*
X207628695Y-109898601D01*
X207764235Y-109705030D01*
X207864103Y-109490863D01*
X207925263Y-109262608D01*
X207945859Y-109027200D01*
X207925263Y-108791792D01*
X207911707Y-108741200D01*
X228724850Y-108741200D01*
X228745016Y-109010300D01*
X228802604Y-109262607D01*
X228805066Y-109273395D01*
X228903657Y-109524598D01*
X229038585Y-109758302D01*
X229206839Y-109969285D01*
X229404659Y-110152835D01*
X229627626Y-110304851D01*
X229870759Y-110421938D01*
X230128628Y-110501480D01*
X230395471Y-110541700D01*
X230665329Y-110541700D01*
X230932172Y-110501480D01*
X231190041Y-110421938D01*
X231433175Y-110304851D01*
X231656141Y-110152835D01*
X231853961Y-109969285D01*
X232022215Y-109758302D01*
X232157143Y-109524598D01*
X232255734Y-109273395D01*
X232315783Y-109010303D01*
X232335949Y-108741200D01*
X232315783Y-108472097D01*
X232255734Y-108209005D01*
X232157143Y-107957802D01*
X232022215Y-107724098D01*
X231853961Y-107513115D01*
X231780209Y-107444683D01*
X231656143Y-107329566D01*
X231598605Y-107290337D01*
X231433175Y-107177549D01*
X231190041Y-107060462D01*
X231110498Y-107035926D01*
X230932171Y-106980919D01*
X230665329Y-106940700D01*
X230395471Y-106940700D01*
X230128628Y-106980919D01*
X229870759Y-107060462D01*
X229627628Y-107177547D01*
X229404657Y-107329566D01*
X229206839Y-107513115D01*
X229038584Y-107724099D01*
X228903657Y-107957801D01*
X228805066Y-108209004D01*
X228745016Y-108472099D01*
X228724850Y-108741200D01*
X207911707Y-108741200D01*
X207864103Y-108563537D01*
X207764235Y-108349371D01*
X207628695Y-108155799D01*
X207506768Y-108033872D01*
X207475473Y-107981127D01*
X207473284Y-107919834D01*
X207500737Y-107864989D01*
X207551116Y-107830010D01*
X207682531Y-107780996D01*
X207797746Y-107694746D01*
X207883996Y-107579531D01*
X207934291Y-107444683D01*
X207940700Y-107385073D01*
X207940699Y-105589328D01*
X207934291Y-105529717D01*
X207883996Y-105394869D01*
X207797746Y-105279654D01*
X207682531Y-105193404D01*
X207621098Y-105170491D01*
X207551116Y-105144389D01*
X207500737Y-105109409D01*
X207473284Y-105054565D01*
X207475473Y-104993272D01*
X207506766Y-104940529D01*
X207628695Y-104818601D01*
X207764235Y-104625030D01*
X207864103Y-104410863D01*
X207925263Y-104182608D01*
X207945859Y-103947200D01*
X207927836Y-103741200D01*
X228724850Y-103741200D01*
X228745016Y-104010300D01*
X228745017Y-104010303D01*
X228805066Y-104273395D01*
X228903657Y-104524598D01*
X229038585Y-104758302D01*
X229206839Y-104969285D01*
X229404659Y-105152835D01*
X229627626Y-105304851D01*
X229870759Y-105421938D01*
X230128628Y-105501480D01*
X230395471Y-105541700D01*
X230665329Y-105541700D01*
X230932172Y-105501480D01*
X231190041Y-105421938D01*
X231433175Y-105304851D01*
X231656141Y-105152835D01*
X231853961Y-104969285D01*
X232022215Y-104758302D01*
X232157143Y-104524598D01*
X232255734Y-104273395D01*
X232315783Y-104010303D01*
X232335949Y-103741200D01*
X232315783Y-103472097D01*
X232255734Y-103209005D01*
X232157143Y-102957802D01*
X232022215Y-102724098D01*
X231853961Y-102513115D01*
X231853960Y-102513114D01*
X231656143Y-102329566D01*
X231581391Y-102278601D01*
X231433175Y-102177549D01*
X231190041Y-102060462D01*
X231110498Y-102035926D01*
X230932171Y-101980919D01*
X230665329Y-101940700D01*
X230395471Y-101940700D01*
X230128628Y-101980919D01*
X229870759Y-102060462D01*
X229627628Y-102177547D01*
X229404657Y-102329566D01*
X229206839Y-102513115D01*
X229038584Y-102724099D01*
X228903657Y-102957801D01*
X228805066Y-103209004D01*
X228745016Y-103472099D01*
X228724850Y-103741200D01*
X207927836Y-103741200D01*
X207925263Y-103711792D01*
X207864103Y-103483537D01*
X207764235Y-103269371D01*
X207628695Y-103075799D01*
X207461601Y-102908705D01*
X207276039Y-102778773D01*
X207237175Y-102734457D01*
X207223164Y-102677200D01*
X207237175Y-102619943D01*
X207276039Y-102575626D01*
X207461601Y-102445695D01*
X207628695Y-102278601D01*
X207764235Y-102085030D01*
X207864103Y-101870863D01*
X207925263Y-101642608D01*
X207945859Y-101407200D01*
X207925263Y-101171792D01*
X207864103Y-100943537D01*
X207764235Y-100729371D01*
X207628695Y-100535799D01*
X207461601Y-100368705D01*
X207276039Y-100238773D01*
X207237175Y-100194457D01*
X207223164Y-100137200D01*
X207237175Y-100079943D01*
X207276039Y-100035626D01*
X207461601Y-99905695D01*
X207628695Y-99738601D01*
X207764235Y-99545030D01*
X207864103Y-99330863D01*
X207925263Y-99102608D01*
X207945859Y-98867200D01*
X207925263Y-98631792D01*
X207864103Y-98403537D01*
X207764235Y-98189371D01*
X207628695Y-97995799D01*
X207562365Y-97929469D01*
X228577700Y-97929469D01*
X228584109Y-97989084D01*
X228586614Y-97995799D01*
X228634404Y-98123931D01*
X228720654Y-98239146D01*
X228835869Y-98325396D01*
X228970717Y-98375691D01*
X229030327Y-98382100D01*
X231726072Y-98382099D01*
X231785683Y-98375691D01*
X231920531Y-98325396D01*
X232035746Y-98239146D01*
X232121996Y-98123931D01*
X232172291Y-97989083D01*
X232178700Y-97929473D01*
X232178699Y-95233728D01*
X232172291Y-95174117D01*
X232121996Y-95039269D01*
X232035746Y-94924054D01*
X231920531Y-94837804D01*
X231785683Y-94787509D01*
X231726073Y-94781100D01*
X231726069Y-94781100D01*
X229030330Y-94781100D01*
X228970715Y-94787509D01*
X228835869Y-94837804D01*
X228720654Y-94924054D01*
X228634404Y-95039268D01*
X228584109Y-95174115D01*
X228584109Y-95174117D01*
X228579236Y-95219446D01*
X228577700Y-95233730D01*
X228577700Y-97929469D01*
X207562365Y-97929469D01*
X207461601Y-97828705D01*
X207276039Y-97698773D01*
X207237174Y-97654455D01*
X207223164Y-97597199D01*
X207237175Y-97539942D01*
X207276037Y-97495628D01*
X207461601Y-97365695D01*
X207628695Y-97198601D01*
X207764235Y-97005030D01*
X207864103Y-96790863D01*
X207925263Y-96562608D01*
X207945859Y-96327200D01*
X207925263Y-96091792D01*
X207864103Y-95863537D01*
X207764235Y-95649371D01*
X207628695Y-95455799D01*
X207506380Y-95333484D01*
X207475085Y-95280739D01*
X207472896Y-95219446D01*
X207500349Y-95164601D01*
X207550728Y-95129622D01*
X207682289Y-95080552D01*
X207797388Y-94994388D01*
X207883552Y-94879289D01*
X207933797Y-94744575D01*
X207940200Y-94685024D01*
X207940200Y-94037200D01*
X205240200Y-94037200D01*
X205240200Y-94685024D01*
X205246602Y-94744575D01*
X205296847Y-94879289D01*
X205383011Y-94994388D01*
X205498111Y-95080552D01*
X205629671Y-95129622D01*
X205680050Y-95164601D01*
X205707503Y-95219446D01*
X205705314Y-95280739D01*
X205674019Y-95333485D01*
X205551703Y-95455801D01*
X205416165Y-95649370D01*
X205316297Y-95863536D01*
X205255136Y-96091792D01*
X205234540Y-96327199D01*
X205255136Y-96562607D01*
X205299909Y-96729702D01*
X205316297Y-96790863D01*
X205416165Y-97005030D01*
X205551705Y-97198601D01*
X205718799Y-97365695D01*
X205904360Y-97495626D01*
X205943224Y-97539943D01*
X205957235Y-97597200D01*
X205943224Y-97654457D01*
X205904360Y-97698774D01*
X205816511Y-97760287D01*
X205718795Y-97828708D01*
X205551705Y-97995798D01*
X205416165Y-98189370D01*
X205316297Y-98403536D01*
X205255136Y-98631792D01*
X205234540Y-98867200D01*
X205255136Y-99102607D01*
X205299909Y-99269702D01*
X205316297Y-99330863D01*
X205416165Y-99545030D01*
X205551705Y-99738601D01*
X205718799Y-99905695D01*
X205904360Y-100035626D01*
X205943224Y-100079943D01*
X205957235Y-100137200D01*
X205943224Y-100194457D01*
X205904359Y-100238775D01*
X205718795Y-100368708D01*
X205551705Y-100535798D01*
X205416165Y-100729370D01*
X205316297Y-100943536D01*
X205255136Y-101171792D01*
X205234540Y-101407199D01*
X205255136Y-101642607D01*
X205278710Y-101730585D01*
X205316297Y-101870863D01*
X205416165Y-102085030D01*
X205551705Y-102278601D01*
X205718799Y-102445695D01*
X205904360Y-102575626D01*
X205943224Y-102619943D01*
X205957235Y-102677200D01*
X205943224Y-102734457D01*
X205904359Y-102778775D01*
X205718795Y-102908708D01*
X205551705Y-103075798D01*
X205416165Y-103269370D01*
X205316297Y-103483536D01*
X205255136Y-103711792D01*
X205234540Y-103947200D01*
X205255136Y-104182607D01*
X205279463Y-104273395D01*
X205316297Y-104410863D01*
X205416165Y-104625030D01*
X205551705Y-104818601D01*
X205551708Y-104818604D01*
X205673630Y-104940526D01*
X205704926Y-104993272D01*
X205707115Y-105054565D01*
X205679662Y-105109409D01*
X205629283Y-105144389D01*
X205497869Y-105193404D01*
X205382654Y-105279654D01*
X205296404Y-105394868D01*
X205246109Y-105529716D01*
X205239700Y-105589330D01*
X205239700Y-107385069D01*
X205246109Y-107444683D01*
X205296404Y-107579531D01*
X205382654Y-107694746D01*
X205497869Y-107780996D01*
X205610107Y-107822858D01*
X205629282Y-107830010D01*
X205679662Y-107864989D01*
X205707115Y-107919834D01*
X205704926Y-107981126D01*
X205673631Y-108033873D01*
X205551703Y-108155801D01*
X205416165Y-108349370D01*
X205316297Y-108563536D01*
X205255136Y-108791792D01*
X205234540Y-109027199D01*
X205255136Y-109262607D01*
X205258027Y-109273395D01*
X205316297Y-109490863D01*
X205416165Y-109705030D01*
X205551705Y-109898601D01*
X205718799Y-110065695D01*
X205904360Y-110195626D01*
X205943224Y-110239943D01*
X205957235Y-110297200D01*
X205943224Y-110354457D01*
X205904358Y-110398775D01*
X205757681Y-110501480D01*
X205718795Y-110528708D01*
X205551705Y-110695798D01*
X205416165Y-110889370D01*
X205316297Y-111103536D01*
X205255136Y-111331792D01*
X205234540Y-111567200D01*
X205255136Y-111802607D01*
X205292138Y-111940700D01*
X205316297Y-112030863D01*
X205416165Y-112245030D01*
X205551705Y-112438601D01*
X205718799Y-112605695D01*
X205904360Y-112735626D01*
X205943224Y-112779943D01*
X205957235Y-112837200D01*
X205943224Y-112894457D01*
X205904359Y-112938775D01*
X205718795Y-113068708D01*
X205551705Y-113235798D01*
X205416165Y-113429370D01*
X205316297Y-113643536D01*
X205255136Y-113871792D01*
X205234540Y-114107199D01*
X205255136Y-114342607D01*
X205299909Y-114509702D01*
X205316297Y-114570863D01*
X205416165Y-114785030D01*
X205551705Y-114978601D01*
X205718799Y-115145695D01*
X205904360Y-115275626D01*
X205943224Y-115319943D01*
X205957235Y-115377200D01*
X205943224Y-115434457D01*
X205904360Y-115478774D01*
X205814493Y-115541700D01*
X205718795Y-115608708D01*
X205551705Y-115775798D01*
X205416165Y-115969370D01*
X205316297Y-116183536D01*
X205255136Y-116411792D01*
X205234540Y-116647200D01*
X190165859Y-116647200D01*
X190145263Y-116411792D01*
X190084103Y-116183537D01*
X189984235Y-115969371D01*
X189848695Y-115775799D01*
X189681601Y-115608705D01*
X189496039Y-115478773D01*
X189457174Y-115434455D01*
X189443164Y-115377199D01*
X189457175Y-115319942D01*
X189496037Y-115275628D01*
X189681601Y-115145695D01*
X189848695Y-114978601D01*
X189984235Y-114785030D01*
X190084103Y-114570863D01*
X190145263Y-114342608D01*
X190165859Y-114107200D01*
X190145263Y-113871792D01*
X190084103Y-113643537D01*
X189984235Y-113429371D01*
X189848695Y-113235799D01*
X189681601Y-113068705D01*
X189496039Y-112938773D01*
X189457174Y-112894455D01*
X189443164Y-112837199D01*
X189457175Y-112779942D01*
X189496037Y-112735628D01*
X189681601Y-112605695D01*
X189848695Y-112438601D01*
X189984235Y-112245030D01*
X190084103Y-112030863D01*
X190145263Y-111802608D01*
X190165859Y-111567200D01*
X190145263Y-111331792D01*
X190084103Y-111103537D01*
X189984235Y-110889371D01*
X189848695Y-110695799D01*
X189681601Y-110528705D01*
X189496039Y-110398773D01*
X189457175Y-110354457D01*
X189443164Y-110297200D01*
X189457175Y-110239943D01*
X189496039Y-110195626D01*
X189681601Y-110065695D01*
X189848695Y-109898601D01*
X189984235Y-109705030D01*
X190084103Y-109490863D01*
X190145263Y-109262608D01*
X190165859Y-109027200D01*
X190145263Y-108791792D01*
X190084103Y-108563537D01*
X189984235Y-108349371D01*
X189848695Y-108155799D01*
X189726769Y-108033873D01*
X189695473Y-107981127D01*
X189693284Y-107919834D01*
X189720737Y-107864989D01*
X189771116Y-107830010D01*
X189902531Y-107780996D01*
X190017746Y-107694746D01*
X190103996Y-107579531D01*
X190154291Y-107444683D01*
X190160700Y-107385073D01*
X190160699Y-105589328D01*
X190154291Y-105529717D01*
X190103996Y-105394869D01*
X190017746Y-105279654D01*
X189902531Y-105193404D01*
X189841098Y-105170491D01*
X189771116Y-105144389D01*
X189720737Y-105109409D01*
X189693284Y-105054565D01*
X189695473Y-104993272D01*
X189726766Y-104940529D01*
X189848695Y-104818601D01*
X189984235Y-104625030D01*
X190084103Y-104410863D01*
X190145263Y-104182608D01*
X190165859Y-103947200D01*
X190145263Y-103711792D01*
X190084103Y-103483537D01*
X189984235Y-103269371D01*
X189848695Y-103075799D01*
X189681601Y-102908705D01*
X189496039Y-102778773D01*
X189457175Y-102734457D01*
X189443164Y-102677200D01*
X189457175Y-102619943D01*
X189496039Y-102575626D01*
X189681601Y-102445695D01*
X189848695Y-102278601D01*
X189984235Y-102085030D01*
X190084103Y-101870863D01*
X190145263Y-101642608D01*
X190165859Y-101407200D01*
X190145263Y-101171792D01*
X190084103Y-100943537D01*
X189984235Y-100729371D01*
X189848695Y-100535799D01*
X189681601Y-100368705D01*
X189496039Y-100238773D01*
X189457175Y-100194457D01*
X189443164Y-100137200D01*
X189457175Y-100079943D01*
X189496039Y-100035626D01*
X189681601Y-99905695D01*
X189848695Y-99738601D01*
X189984235Y-99545030D01*
X190084103Y-99330863D01*
X190145263Y-99102608D01*
X190165859Y-98867200D01*
X190145263Y-98631792D01*
X190084103Y-98403537D01*
X189984235Y-98189371D01*
X189848695Y-97995799D01*
X189681601Y-97828705D01*
X189496039Y-97698773D01*
X189457174Y-97654455D01*
X189443164Y-97597199D01*
X189457175Y-97539942D01*
X189496037Y-97495628D01*
X189681601Y-97365695D01*
X189848695Y-97198601D01*
X189984235Y-97005030D01*
X190084103Y-96790863D01*
X190145263Y-96562608D01*
X190165859Y-96327200D01*
X190145263Y-96091792D01*
X190084103Y-95863537D01*
X189984235Y-95649371D01*
X189848695Y-95455799D01*
X189726381Y-95333485D01*
X189695085Y-95280739D01*
X189692896Y-95219446D01*
X189720349Y-95164601D01*
X189770728Y-95129622D01*
X189902289Y-95080552D01*
X190017388Y-94994388D01*
X190103552Y-94879289D01*
X190153797Y-94744575D01*
X190160200Y-94685024D01*
X190160200Y-94037200D01*
X187460200Y-94037200D01*
X187460200Y-94685024D01*
X187466602Y-94744575D01*
X187516847Y-94879289D01*
X187603011Y-94994388D01*
X187718111Y-95080552D01*
X187849671Y-95129622D01*
X187900050Y-95164601D01*
X187927503Y-95219446D01*
X187925314Y-95280739D01*
X187894019Y-95333485D01*
X187771703Y-95455801D01*
X187636165Y-95649370D01*
X187536297Y-95863536D01*
X187475136Y-96091792D01*
X187454540Y-96327199D01*
X187475136Y-96562607D01*
X187519909Y-96729702D01*
X187536297Y-96790863D01*
X187636165Y-97005030D01*
X187771705Y-97198601D01*
X187938799Y-97365695D01*
X188124360Y-97495626D01*
X188163224Y-97539943D01*
X188177235Y-97597200D01*
X188163224Y-97654457D01*
X188124360Y-97698774D01*
X188036511Y-97760287D01*
X187938795Y-97828708D01*
X187771705Y-97995798D01*
X187636165Y-98189370D01*
X187536297Y-98403536D01*
X187475136Y-98631792D01*
X187454540Y-98867200D01*
X187475136Y-99102607D01*
X187519909Y-99269702D01*
X187536297Y-99330863D01*
X187636165Y-99545030D01*
X187771705Y-99738601D01*
X187938799Y-99905695D01*
X188124360Y-100035626D01*
X188163224Y-100079943D01*
X188177235Y-100137200D01*
X188163224Y-100194457D01*
X188124359Y-100238775D01*
X187938795Y-100368708D01*
X187771705Y-100535798D01*
X187636165Y-100729370D01*
X187536297Y-100943536D01*
X187475136Y-101171792D01*
X187454540Y-101407199D01*
X187475136Y-101642607D01*
X187498710Y-101730585D01*
X187536297Y-101870863D01*
X187636165Y-102085030D01*
X187771705Y-102278601D01*
X187938799Y-102445695D01*
X188124360Y-102575626D01*
X188163224Y-102619943D01*
X188177235Y-102677200D01*
X188163224Y-102734457D01*
X188124359Y-102778775D01*
X187938795Y-102908708D01*
X187771705Y-103075798D01*
X187636165Y-103269370D01*
X187536297Y-103483536D01*
X187475136Y-103711792D01*
X187454540Y-103947200D01*
X187475136Y-104182607D01*
X187499463Y-104273395D01*
X187536297Y-104410863D01*
X187636165Y-104625030D01*
X187771705Y-104818601D01*
X187771708Y-104818604D01*
X187893630Y-104940526D01*
X187924926Y-104993272D01*
X187927115Y-105054565D01*
X187899662Y-105109409D01*
X187849283Y-105144389D01*
X187717869Y-105193404D01*
X187602654Y-105279654D01*
X187516404Y-105394868D01*
X187466109Y-105529716D01*
X187459700Y-105589330D01*
X187459700Y-107385069D01*
X187466109Y-107444683D01*
X187516404Y-107579531D01*
X187602654Y-107694746D01*
X187717869Y-107780996D01*
X187830107Y-107822858D01*
X187849282Y-107830010D01*
X187899662Y-107864989D01*
X187927115Y-107919834D01*
X187924926Y-107981126D01*
X187893631Y-108033873D01*
X187771703Y-108155801D01*
X187636165Y-108349370D01*
X187536297Y-108563536D01*
X187475136Y-108791792D01*
X187454540Y-109027199D01*
X187475136Y-109262607D01*
X187478027Y-109273395D01*
X187536297Y-109490863D01*
X187636165Y-109705030D01*
X187771705Y-109898601D01*
X187938799Y-110065695D01*
X188124360Y-110195626D01*
X188163224Y-110239943D01*
X188177235Y-110297200D01*
X188163224Y-110354457D01*
X188124358Y-110398775D01*
X187977681Y-110501480D01*
X187938795Y-110528708D01*
X187771705Y-110695798D01*
X187636165Y-110889370D01*
X187536297Y-111103536D01*
X187475136Y-111331792D01*
X187454540Y-111567200D01*
X187475136Y-111802607D01*
X187512138Y-111940700D01*
X187536297Y-112030863D01*
X187636165Y-112245030D01*
X187771705Y-112438601D01*
X187938799Y-112605695D01*
X188124360Y-112735626D01*
X188163224Y-112779943D01*
X188177235Y-112837200D01*
X188163224Y-112894457D01*
X188124359Y-112938775D01*
X187938795Y-113068708D01*
X187771705Y-113235798D01*
X187636165Y-113429370D01*
X187536297Y-113643536D01*
X187475136Y-113871792D01*
X187454540Y-114107199D01*
X187475136Y-114342607D01*
X187519909Y-114509702D01*
X187536297Y-114570863D01*
X187636165Y-114785030D01*
X187771705Y-114978601D01*
X187938799Y-115145695D01*
X188124360Y-115275626D01*
X188163224Y-115319943D01*
X188177235Y-115377200D01*
X188163224Y-115434457D01*
X188124360Y-115478774D01*
X188034493Y-115541700D01*
X187938795Y-115608708D01*
X187771705Y-115775798D01*
X187636165Y-115969370D01*
X187536297Y-116183536D01*
X187475136Y-116411792D01*
X187454540Y-116647200D01*
X187475136Y-116882607D01*
X187501479Y-116980919D01*
X187536297Y-117110863D01*
X187636165Y-117325030D01*
X187771705Y-117518601D01*
X187771708Y-117518603D01*
X187771708Y-117518604D01*
X187893630Y-117640526D01*
X187924926Y-117693272D01*
X187927115Y-117754565D01*
X187899662Y-117809409D01*
X187849283Y-117844389D01*
X187717869Y-117893404D01*
X187602654Y-117979654D01*
X187516404Y-118094868D01*
X187466109Y-118229716D01*
X187459700Y-118289330D01*
X187459700Y-120085069D01*
X187466109Y-120144684D01*
X187469149Y-120152835D01*
X187516404Y-120279531D01*
X187602654Y-120394746D01*
X187717869Y-120480996D01*
X187830107Y-120522858D01*
X187849282Y-120530010D01*
X187899662Y-120564989D01*
X187927115Y-120619834D01*
X187924926Y-120681126D01*
X187893631Y-120733873D01*
X187771703Y-120855801D01*
X187636165Y-121049370D01*
X187536297Y-121263536D01*
X187475136Y-121491792D01*
X187454540Y-121727200D01*
X187475136Y-121962607D01*
X187519909Y-122129701D01*
X187536297Y-122190863D01*
X187636165Y-122405030D01*
X187771705Y-122598601D01*
X187938799Y-122765695D01*
X188124360Y-122895626D01*
X188163224Y-122939943D01*
X188177235Y-122997200D01*
X188163224Y-123054457D01*
X188124359Y-123098775D01*
X187938795Y-123228708D01*
X187771705Y-123395798D01*
X187636165Y-123589370D01*
X187536297Y-123803536D01*
X187475136Y-124031792D01*
X187454540Y-124267199D01*
X187475136Y-124502607D01*
X187519909Y-124669701D01*
X187536297Y-124730863D01*
X187636165Y-124945030D01*
X187771705Y-125138601D01*
X187938799Y-125305695D01*
X188124360Y-125435626D01*
X188163224Y-125479943D01*
X188177235Y-125537200D01*
X188163224Y-125594457D01*
X188124359Y-125638775D01*
X187938795Y-125768708D01*
X187771705Y-125935798D01*
X187636165Y-126129370D01*
X187536297Y-126343536D01*
X187475136Y-126571792D01*
X187454540Y-126807199D01*
X187475136Y-127042607D01*
X187519909Y-127209701D01*
X187536297Y-127270863D01*
X187636165Y-127485030D01*
X187771705Y-127678601D01*
X187938799Y-127845695D01*
X188124360Y-127975626D01*
X188163224Y-128019943D01*
X188177235Y-128077200D01*
X188163224Y-128134457D01*
X188124359Y-128178775D01*
X187938795Y-128308708D01*
X187771705Y-128475798D01*
X187636165Y-128669370D01*
X187536297Y-128883536D01*
X187475136Y-129111792D01*
X187454540Y-129347200D01*
X176019916Y-129347200D01*
X175883161Y-129175715D01*
X175828411Y-129124914D01*
X175685343Y-128992166D01*
X175610831Y-128941365D01*
X175462375Y-128840149D01*
X175219241Y-128723062D01*
X175129738Y-128695454D01*
X174961371Y-128643519D01*
X174694529Y-128603300D01*
X174424671Y-128603300D01*
X174157828Y-128643519D01*
X173899959Y-128723062D01*
X173656828Y-128840147D01*
X173433857Y-128992166D01*
X173236039Y-129175715D01*
X173067784Y-129386699D01*
X172932857Y-129620401D01*
X172834266Y-129871604D01*
X172774216Y-130134699D01*
X172754050Y-130403799D01*
X171360099Y-130403799D01*
X171360099Y-129055928D01*
X171353691Y-128996317D01*
X171303396Y-128861469D01*
X171217146Y-128746254D01*
X171101931Y-128660004D01*
X170967083Y-128609709D01*
X170907473Y-128603300D01*
X170907469Y-128603300D01*
X168211730Y-128603300D01*
X168152115Y-128609709D01*
X168017269Y-128660004D01*
X167902054Y-128746254D01*
X167815804Y-128861468D01*
X167765509Y-128996316D01*
X167759100Y-129055930D01*
X167759100Y-131751669D01*
X163659715Y-131751669D01*
X163843561Y-131581085D01*
X164011815Y-131370102D01*
X164146743Y-131136398D01*
X164245334Y-130885195D01*
X164305383Y-130622103D01*
X164325549Y-130353000D01*
X164305383Y-130083897D01*
X164245334Y-129820805D01*
X164146743Y-129569602D01*
X164011815Y-129335898D01*
X163843561Y-129124915D01*
X163769210Y-129055927D01*
X163645743Y-128941366D01*
X163560923Y-128883537D01*
X163422775Y-128789349D01*
X163179641Y-128672262D01*
X163086462Y-128643520D01*
X162921771Y-128592719D01*
X162654929Y-128552500D01*
X162385071Y-128552500D01*
X162118228Y-128592719D01*
X161860359Y-128672262D01*
X161617228Y-128789347D01*
X161394257Y-128941366D01*
X161196439Y-129124915D01*
X161028184Y-129335899D01*
X160893257Y-129569601D01*
X160794666Y-129820804D01*
X160734616Y-130083899D01*
X160714450Y-130353000D01*
X159320499Y-130353000D01*
X159320499Y-129005128D01*
X159314091Y-128945517D01*
X159263796Y-128810669D01*
X159177546Y-128695454D01*
X159062331Y-128609204D01*
X158927483Y-128558909D01*
X158867873Y-128552500D01*
X158867869Y-128552500D01*
X156172130Y-128552500D01*
X156112515Y-128558909D01*
X155977669Y-128609204D01*
X155862454Y-128695454D01*
X155776204Y-128810668D01*
X155725909Y-128945515D01*
X155725909Y-128945517D01*
X155720448Y-128996316D01*
X155719500Y-129005130D01*
X155719500Y-131700869D01*
X153929869Y-131700869D01*
X153918797Y-102870000D01*
X162190815Y-102870000D01*
X162209525Y-103119670D01*
X162265240Y-103363771D01*
X162356710Y-103596833D01*
X162423081Y-103711792D01*
X162481898Y-103813665D01*
X162638003Y-104009414D01*
X162821540Y-104179712D01*
X163028408Y-104320752D01*
X163253987Y-104429385D01*
X163493236Y-104503184D01*
X163740813Y-104540500D01*
X163991187Y-104540500D01*
X164238764Y-104503184D01*
X164478013Y-104429385D01*
X164703592Y-104320752D01*
X164910460Y-104179712D01*
X165093997Y-104009414D01*
X165250102Y-103813665D01*
X165375289Y-103596835D01*
X165466760Y-103363769D01*
X165522474Y-103119673D01*
X165541184Y-102870000D01*
X165522474Y-102620327D01*
X165466760Y-102376231D01*
X165448445Y-102329566D01*
X165438283Y-102303674D01*
X165375289Y-102143165D01*
X165250102Y-101926335D01*
X165093997Y-101730586D01*
X164999178Y-101642607D01*
X164910459Y-101560287D01*
X164703592Y-101419248D01*
X164678572Y-101407199D01*
X164478013Y-101310615D01*
X164404213Y-101287850D01*
X164238763Y-101236815D01*
X163991187Y-101199500D01*
X163740813Y-101199500D01*
X163493236Y-101236815D01*
X163253987Y-101310615D01*
X163028407Y-101419248D01*
X162821540Y-101560287D01*
X162638003Y-101730585D01*
X162481897Y-101926335D01*
X162356710Y-102143166D01*
X162265240Y-102376228D01*
X162209525Y-102620329D01*
X162190815Y-102870000D01*
X153918797Y-102870000D01*
X153917338Y-99069999D01*
X159690815Y-99069999D01*
X159709525Y-99319670D01*
X159765240Y-99563771D01*
X159856710Y-99796833D01*
X159981897Y-100013664D01*
X160003884Y-100041235D01*
X160138003Y-100209414D01*
X160321540Y-100379712D01*
X160528408Y-100520752D01*
X160753987Y-100629385D01*
X160993236Y-100703184D01*
X161240813Y-100740500D01*
X161491187Y-100740500D01*
X161738764Y-100703184D01*
X161978013Y-100629385D01*
X162203592Y-100520752D01*
X162358485Y-100415148D01*
X165374402Y-100415148D01*
X165528660Y-100520318D01*
X165754167Y-100628917D01*
X165993348Y-100702695D01*
X166240851Y-100740000D01*
X166491149Y-100740000D01*
X166738651Y-100702695D01*
X166977832Y-100628917D01*
X167203337Y-100520320D01*
X167357596Y-100415148D01*
X166366000Y-99423553D01*
X165374402Y-100415148D01*
X162358485Y-100415148D01*
X162410460Y-100379712D01*
X162593997Y-100209414D01*
X162750102Y-100013665D01*
X162875289Y-99796835D01*
X162966760Y-99563769D01*
X163022474Y-99319673D01*
X163041184Y-99070000D01*
X163041184Y-99069999D01*
X164691316Y-99069999D01*
X164710021Y-99319597D01*
X164765718Y-99563621D01*
X164857163Y-99796618D01*
X164982310Y-100013380D01*
X165020800Y-100061645D01*
X166012447Y-99070001D01*
X166719553Y-99070001D01*
X167711198Y-100061646D01*
X167711199Y-100061645D01*
X167749688Y-100013382D01*
X167874836Y-99796618D01*
X167966281Y-99563621D01*
X168021978Y-99319597D01*
X168040683Y-99069999D01*
X168021978Y-98820402D01*
X167966281Y-98576378D01*
X167874836Y-98343381D01*
X167749689Y-98126619D01*
X167711198Y-98078353D01*
X166719553Y-99070000D01*
X166719553Y-99070001D01*
X166012447Y-99070001D01*
X166012447Y-99070000D01*
X165020800Y-98078353D01*
X165020799Y-98078353D01*
X164982313Y-98126615D01*
X164857163Y-98343381D01*
X164765718Y-98576378D01*
X164710021Y-98820402D01*
X164691316Y-99069999D01*
X163041184Y-99069999D01*
X163022474Y-98820327D01*
X162966760Y-98576231D01*
X162875289Y-98343165D01*
X162750102Y-98126335D01*
X162593997Y-97930586D01*
X162592797Y-97929473D01*
X162410459Y-97760287D01*
X162358481Y-97724849D01*
X165374402Y-97724849D01*
X166366000Y-98716447D01*
X166366001Y-98716447D01*
X167357596Y-97724850D01*
X167203340Y-97619681D01*
X166977832Y-97511082D01*
X166738651Y-97437304D01*
X166491149Y-97400000D01*
X166240851Y-97400000D01*
X165993348Y-97437304D01*
X165754167Y-97511083D01*
X165528660Y-97619680D01*
X165374402Y-97724849D01*
X162358481Y-97724849D01*
X162203592Y-97619248D01*
X162038913Y-97539943D01*
X161978013Y-97510615D01*
X161904212Y-97487850D01*
X161738763Y-97436815D01*
X161491187Y-97399500D01*
X161240813Y-97399500D01*
X160993236Y-97436815D01*
X160753987Y-97510615D01*
X160528407Y-97619248D01*
X160321540Y-97760287D01*
X160138003Y-97930585D01*
X159981897Y-98126335D01*
X159856710Y-98343166D01*
X159765240Y-98576228D01*
X159709525Y-98820329D01*
X159690815Y-99069999D01*
X153917338Y-99069999D01*
X153915013Y-93016335D01*
X157229500Y-93016335D01*
X157270429Y-93261615D01*
X157311620Y-93381600D01*
X157351172Y-93496810D01*
X157469526Y-93715509D01*
X157469529Y-93715514D01*
X157605036Y-93889612D01*
X157622262Y-93911744D01*
X157805215Y-94080164D01*
X158013393Y-94216173D01*
X158241119Y-94316063D01*
X158482179Y-94377108D01*
X158556480Y-94383264D01*
X158667927Y-94392500D01*
X158667933Y-94392500D01*
X160292067Y-94392500D01*
X160292073Y-94392500D01*
X160393387Y-94384104D01*
X160477821Y-94377108D01*
X160718881Y-94316063D01*
X160946607Y-94216173D01*
X161154785Y-94080164D01*
X161337738Y-93911744D01*
X161490474Y-93715509D01*
X161608828Y-93496810D01*
X161689571Y-93261614D01*
X161730500Y-93016335D01*
X161730500Y-92767665D01*
X161689571Y-92522386D01*
X161608828Y-92287190D01*
X161490474Y-92068491D01*
X161490471Y-92068487D01*
X161490470Y-92068485D01*
X161337740Y-91872259D01*
X161337738Y-91872256D01*
X161154785Y-91703836D01*
X160946607Y-91567827D01*
X160946604Y-91567825D01*
X160752327Y-91482608D01*
X160718881Y-91467937D01*
X160477821Y-91406892D01*
X160477819Y-91406891D01*
X160477816Y-91406891D01*
X160292073Y-91391500D01*
X160292067Y-91391500D01*
X158667933Y-91391500D01*
X158667927Y-91391500D01*
X158482183Y-91406891D01*
X158482179Y-91406891D01*
X158482179Y-91406892D01*
X158241119Y-91467937D01*
X158241116Y-91467938D01*
X158241117Y-91467938D01*
X158013395Y-91567825D01*
X157874607Y-91658499D01*
X157805215Y-91703836D01*
X157645759Y-91850626D01*
X157622259Y-91872259D01*
X157469529Y-92068485D01*
X157351170Y-92287194D01*
X157270429Y-92522384D01*
X157229500Y-92767665D01*
X157229500Y-93016335D01*
X153915013Y-93016335D01*
X153914334Y-91247199D01*
X187454540Y-91247199D01*
X187475136Y-91482607D01*
X187519909Y-91649702D01*
X187536297Y-91710863D01*
X187636165Y-91925030D01*
X187771705Y-92118601D01*
X187771708Y-92118604D01*
X187894018Y-92240914D01*
X187925314Y-92293660D01*
X187927503Y-92354953D01*
X187900050Y-92409797D01*
X187849672Y-92444776D01*
X187718113Y-92493846D01*
X187603011Y-92580011D01*
X187516847Y-92695110D01*
X187466602Y-92829824D01*
X187460200Y-92889376D01*
X187460200Y-93537200D01*
X190160200Y-93537200D01*
X190160200Y-92889376D01*
X190153797Y-92829824D01*
X190103552Y-92695110D01*
X190017388Y-92580011D01*
X189902288Y-92493847D01*
X189770728Y-92444777D01*
X189720349Y-92409797D01*
X189692896Y-92354952D01*
X189695085Y-92293660D01*
X189726378Y-92240917D01*
X189848695Y-92118601D01*
X189984235Y-91925030D01*
X190084103Y-91710863D01*
X190145263Y-91482608D01*
X190165859Y-91247200D01*
X190165859Y-91247199D01*
X205234540Y-91247199D01*
X205255136Y-91482607D01*
X205299909Y-91649702D01*
X205316297Y-91710863D01*
X205416165Y-91925030D01*
X205551705Y-92118601D01*
X205551708Y-92118604D01*
X205674018Y-92240914D01*
X205705314Y-92293660D01*
X205707503Y-92354953D01*
X205680050Y-92409797D01*
X205629672Y-92444776D01*
X205498113Y-92493846D01*
X205383011Y-92580011D01*
X205296847Y-92695110D01*
X205246602Y-92829824D01*
X205240200Y-92889376D01*
X205240200Y-93537200D01*
X207940200Y-93537200D01*
X207940200Y-93020302D01*
X229293048Y-93020302D01*
X229475679Y-93144817D01*
X229718742Y-93261870D01*
X229976539Y-93341391D01*
X230243309Y-93381600D01*
X230513091Y-93381600D01*
X230779860Y-93341391D01*
X231037660Y-93261870D01*
X231280723Y-93144817D01*
X231463350Y-93020302D01*
X230378200Y-91935153D01*
X229293048Y-93020302D01*
X207940200Y-93020302D01*
X207940200Y-92889376D01*
X207933797Y-92829824D01*
X207883552Y-92695110D01*
X207797388Y-92580011D01*
X207682288Y-92493847D01*
X207550728Y-92444777D01*
X207500349Y-92409797D01*
X207472896Y-92354952D01*
X207475085Y-92293660D01*
X207506378Y-92240917D01*
X207628695Y-92118601D01*
X207764235Y-91925030D01*
X207864103Y-91710863D01*
X207898738Y-91581600D01*
X228573152Y-91581600D01*
X228593313Y-91850626D01*
X228653346Y-92113649D01*
X228751908Y-92364778D01*
X228886798Y-92598416D01*
X228940495Y-92665750D01*
X230024647Y-91581601D01*
X230024647Y-91581600D01*
X230731753Y-91581600D01*
X231815903Y-92665751D01*
X231815904Y-92665750D01*
X231869600Y-92598418D01*
X232004491Y-92364778D01*
X232103053Y-92113649D01*
X232163086Y-91850626D01*
X232183247Y-91581600D01*
X232163086Y-91312573D01*
X232103053Y-91049550D01*
X232004491Y-90798421D01*
X231869598Y-90564778D01*
X231815904Y-90497447D01*
X230731753Y-91581600D01*
X230024647Y-91581600D01*
X228940495Y-90497448D01*
X228886798Y-90564782D01*
X228751908Y-90798421D01*
X228653346Y-91049550D01*
X228593313Y-91312573D01*
X228573152Y-91581600D01*
X207898738Y-91581600D01*
X207925263Y-91482608D01*
X207945859Y-91247200D01*
X207925263Y-91011792D01*
X207864103Y-90783537D01*
X207764235Y-90569371D01*
X207628695Y-90375799D01*
X207461601Y-90208705D01*
X207367616Y-90142896D01*
X229293048Y-90142896D01*
X230378200Y-91228047D01*
X230378201Y-91228047D01*
X231463350Y-90142896D01*
X231280719Y-90018380D01*
X231037660Y-89901329D01*
X230779860Y-89821808D01*
X230513091Y-89781600D01*
X230243309Y-89781600D01*
X229976539Y-89821808D01*
X229718742Y-89901329D01*
X229475676Y-90018383D01*
X229293048Y-90142896D01*
X207367616Y-90142896D01*
X207276039Y-90078773D01*
X207237174Y-90034455D01*
X207223164Y-89977199D01*
X207237175Y-89919942D01*
X207276037Y-89875628D01*
X207461601Y-89745695D01*
X207628695Y-89578601D01*
X207764235Y-89385030D01*
X207864103Y-89170863D01*
X207925263Y-88942608D01*
X207945859Y-88707200D01*
X207925263Y-88471792D01*
X207864103Y-88243537D01*
X207764235Y-88029371D01*
X207628695Y-87835799D01*
X207461601Y-87668705D01*
X207268030Y-87533165D01*
X207053863Y-87433297D01*
X206992175Y-87416768D01*
X206825607Y-87372136D01*
X206590199Y-87351540D01*
X206354792Y-87372136D01*
X206126536Y-87433297D01*
X205912370Y-87533165D01*
X205718798Y-87668705D01*
X205551705Y-87835798D01*
X205416165Y-88029370D01*
X205316297Y-88243536D01*
X205255136Y-88471792D01*
X205234540Y-88707200D01*
X205255136Y-88942607D01*
X205298394Y-89104049D01*
X205316297Y-89170863D01*
X205416165Y-89385030D01*
X205551705Y-89578601D01*
X205718799Y-89745695D01*
X205904360Y-89875626D01*
X205943224Y-89919943D01*
X205957235Y-89977200D01*
X205943224Y-90034457D01*
X205904360Y-90078774D01*
X205803542Y-90149368D01*
X205718795Y-90208708D01*
X205551705Y-90375798D01*
X205416165Y-90569370D01*
X205316297Y-90783536D01*
X205255136Y-91011792D01*
X205234540Y-91247199D01*
X190165859Y-91247199D01*
X190145263Y-91011792D01*
X190084103Y-90783537D01*
X189984235Y-90569371D01*
X189848695Y-90375799D01*
X189681601Y-90208705D01*
X189496039Y-90078773D01*
X189457174Y-90034455D01*
X189443164Y-89977199D01*
X189457175Y-89919942D01*
X189496037Y-89875628D01*
X189681601Y-89745695D01*
X189848695Y-89578601D01*
X189984235Y-89385030D01*
X190084103Y-89170863D01*
X190145263Y-88942608D01*
X190145736Y-88937199D01*
X193804540Y-88937199D01*
X193825136Y-89172607D01*
X193851148Y-89269685D01*
X193886297Y-89400863D01*
X193986165Y-89615030D01*
X194121705Y-89808601D01*
X194288799Y-89975695D01*
X194482370Y-90111235D01*
X194696537Y-90211103D01*
X194924791Y-90272262D01*
X194924792Y-90272263D01*
X195160199Y-90292859D01*
X195160199Y-90292858D01*
X195160200Y-90292859D01*
X195395608Y-90272263D01*
X195623863Y-90211103D01*
X195838030Y-90111235D01*
X196031601Y-89975695D01*
X196153529Y-89853766D01*
X196206272Y-89822473D01*
X196267565Y-89820284D01*
X196322409Y-89847737D01*
X196357389Y-89898116D01*
X196365530Y-89919942D01*
X196406404Y-90029531D01*
X196492654Y-90144746D01*
X196607869Y-90230996D01*
X196742717Y-90281291D01*
X196802327Y-90287700D01*
X198598072Y-90287699D01*
X198657683Y-90281291D01*
X198792531Y-90230996D01*
X198907746Y-90144746D01*
X198993996Y-90029531D01*
X199043010Y-89898116D01*
X199077989Y-89847737D01*
X199132834Y-89820284D01*
X199194127Y-89822473D01*
X199246873Y-89853769D01*
X199368799Y-89975695D01*
X199562370Y-90111235D01*
X199776537Y-90211103D01*
X200004791Y-90272262D01*
X200004792Y-90272263D01*
X200240199Y-90292859D01*
X200240199Y-90292858D01*
X200240200Y-90292859D01*
X200475608Y-90272263D01*
X200703863Y-90211103D01*
X200918030Y-90111235D01*
X201111601Y-89975695D01*
X201278695Y-89808601D01*
X201414235Y-89615030D01*
X201514103Y-89400863D01*
X201575263Y-89172608D01*
X201595859Y-88937200D01*
X201583501Y-88795956D01*
X201575263Y-88701792D01*
X201559242Y-88642000D01*
X201514103Y-88473537D01*
X201414235Y-88259371D01*
X201278695Y-88065799D01*
X201111601Y-87898705D01*
X200918030Y-87763165D01*
X200703863Y-87663297D01*
X200637775Y-87645589D01*
X200475607Y-87602136D01*
X200240200Y-87581540D01*
X200004792Y-87602136D01*
X199776536Y-87663297D01*
X199562370Y-87763165D01*
X199368801Y-87898703D01*
X199246873Y-88020631D01*
X199194126Y-88051926D01*
X199132834Y-88054115D01*
X199077989Y-88026662D01*
X199043010Y-87976282D01*
X199035858Y-87957107D01*
X198993996Y-87844869D01*
X198907746Y-87729654D01*
X198792531Y-87643404D01*
X198657683Y-87593109D01*
X198598073Y-87586700D01*
X198598069Y-87586700D01*
X196802330Y-87586700D01*
X196742715Y-87593109D01*
X196607869Y-87643404D01*
X196492654Y-87729654D01*
X196406404Y-87844869D01*
X196357389Y-87976283D01*
X196322409Y-88026662D01*
X196267565Y-88054115D01*
X196206272Y-88051926D01*
X196153526Y-88020630D01*
X196031604Y-87898708D01*
X196031604Y-87898707D01*
X196031601Y-87898705D01*
X195838030Y-87763165D01*
X195623863Y-87663297D01*
X195557775Y-87645589D01*
X195395607Y-87602136D01*
X195160200Y-87581540D01*
X194924792Y-87602136D01*
X194696536Y-87663297D01*
X194482370Y-87763165D01*
X194288798Y-87898705D01*
X194121705Y-88065798D01*
X193986165Y-88259370D01*
X193886297Y-88473536D01*
X193825136Y-88701792D01*
X193804540Y-88937199D01*
X190145736Y-88937199D01*
X190165859Y-88707200D01*
X190145263Y-88471792D01*
X190084103Y-88243537D01*
X189984235Y-88029371D01*
X189848695Y-87835799D01*
X189681601Y-87668705D01*
X189488030Y-87533165D01*
X189273863Y-87433297D01*
X189212175Y-87416768D01*
X189045607Y-87372136D01*
X188810199Y-87351540D01*
X188574792Y-87372136D01*
X188346536Y-87433297D01*
X188132370Y-87533165D01*
X187938798Y-87668705D01*
X187771705Y-87835798D01*
X187636165Y-88029370D01*
X187536297Y-88243536D01*
X187475136Y-88471792D01*
X187454540Y-88707200D01*
X187475136Y-88942607D01*
X187518394Y-89104049D01*
X187536297Y-89170863D01*
X187636165Y-89385030D01*
X187771705Y-89578601D01*
X187938799Y-89745695D01*
X188124360Y-89875626D01*
X188163224Y-89919943D01*
X188177235Y-89977200D01*
X188163224Y-90034457D01*
X188124360Y-90078774D01*
X188023542Y-90149368D01*
X187938795Y-90208708D01*
X187771705Y-90375798D01*
X187636165Y-90569370D01*
X187536297Y-90783536D01*
X187475136Y-91011792D01*
X187454540Y-91247199D01*
X153914334Y-91247199D01*
X153913237Y-88392000D01*
X156424417Y-88392000D01*
X156444699Y-88597932D01*
X156444700Y-88597934D01*
X156504768Y-88795954D01*
X156602315Y-88978450D01*
X156653608Y-89040952D01*
X156733589Y-89138410D01*
X156813569Y-89204047D01*
X156893550Y-89269685D01*
X157076046Y-89367232D01*
X157274066Y-89427300D01*
X157428392Y-89442500D01*
X157531607Y-89442500D01*
X157531608Y-89442500D01*
X157685934Y-89427300D01*
X157883954Y-89367232D01*
X158066450Y-89269685D01*
X158226410Y-89138410D01*
X158357685Y-88978450D01*
X158455232Y-88795954D01*
X158501933Y-88642000D01*
X158980000Y-88642000D01*
X158980000Y-89104049D01*
X158995386Y-89289732D01*
X159056413Y-89530721D01*
X159156266Y-89758365D01*
X159292233Y-89966477D01*
X159460596Y-90149368D01*
X159656766Y-90302053D01*
X159875393Y-90420368D01*
X160110508Y-90501083D01*
X160229999Y-90521023D01*
X160230000Y-90521023D01*
X160230000Y-88642000D01*
X160730000Y-88642000D01*
X160730000Y-90521023D01*
X160849491Y-90501083D01*
X161027801Y-90439869D01*
X164979500Y-90439869D01*
X164985909Y-90499484D01*
X164993943Y-90521023D01*
X165036204Y-90634331D01*
X165122454Y-90749546D01*
X165237669Y-90835796D01*
X165372517Y-90886091D01*
X165432127Y-90892500D01*
X167527872Y-90892499D01*
X167587483Y-90886091D01*
X167722331Y-90835796D01*
X167837546Y-90749546D01*
X167923796Y-90634331D01*
X167974091Y-90499483D01*
X167980500Y-90439873D01*
X167980499Y-86344128D01*
X167974091Y-86284517D01*
X167923796Y-86149669D01*
X167837546Y-86034454D01*
X167722331Y-85948204D01*
X167587483Y-85897909D01*
X167527873Y-85891500D01*
X167527869Y-85891500D01*
X165432130Y-85891500D01*
X165372515Y-85897909D01*
X165237669Y-85948204D01*
X165122454Y-86034454D01*
X165036204Y-86149668D01*
X164985909Y-86284516D01*
X164979500Y-86344130D01*
X164979500Y-90439869D01*
X161027801Y-90439869D01*
X161084606Y-90420368D01*
X161303233Y-90302053D01*
X161499403Y-90149368D01*
X161667766Y-89966477D01*
X161803733Y-89758365D01*
X161903586Y-89530721D01*
X161964613Y-89289732D01*
X161980000Y-89104049D01*
X161980000Y-88642000D01*
X160730000Y-88642000D01*
X160230000Y-88642000D01*
X158980000Y-88642000D01*
X158501933Y-88642000D01*
X158515300Y-88597934D01*
X158535583Y-88392000D01*
X158515300Y-88186066D01*
X158501933Y-88142000D01*
X158980000Y-88142000D01*
X160230000Y-88142000D01*
X160230000Y-86262978D01*
X160229999Y-86262976D01*
X160730000Y-86262976D01*
X160730000Y-88142000D01*
X161980000Y-88142000D01*
X161980000Y-87679951D01*
X161964613Y-87494267D01*
X161903586Y-87253278D01*
X161803733Y-87025634D01*
X161667766Y-86817522D01*
X161499403Y-86634631D01*
X161303233Y-86481946D01*
X161084606Y-86363631D01*
X160849491Y-86282916D01*
X160730000Y-86262976D01*
X160229999Y-86262976D01*
X160110508Y-86282916D01*
X159875393Y-86363631D01*
X159656766Y-86481946D01*
X159460596Y-86634631D01*
X159292233Y-86817522D01*
X159156266Y-87025634D01*
X159056413Y-87253278D01*
X158995386Y-87494267D01*
X158980000Y-87679951D01*
X158980000Y-88142000D01*
X158501933Y-88142000D01*
X158455232Y-87988046D01*
X158357685Y-87805550D01*
X158292047Y-87725569D01*
X158226410Y-87645589D01*
X158128952Y-87565608D01*
X158066450Y-87514315D01*
X157883954Y-87416768D01*
X157736824Y-87372137D01*
X157685932Y-87356699D01*
X157548467Y-87343160D01*
X157531608Y-87341500D01*
X157428392Y-87341500D01*
X157413192Y-87342996D01*
X157274067Y-87356699D01*
X157076043Y-87416769D01*
X156893551Y-87514314D01*
X156733589Y-87645589D01*
X156602314Y-87805551D01*
X156504769Y-87988043D01*
X156444699Y-88186067D01*
X156424417Y-88392000D01*
X153913237Y-88392000D01*
X153911556Y-84016335D01*
X157229500Y-84016335D01*
X157270429Y-84261615D01*
X157351170Y-84496805D01*
X157351172Y-84496810D01*
X157469526Y-84715509D01*
X157469529Y-84715514D01*
X157605036Y-84889612D01*
X157622262Y-84911744D01*
X157805215Y-85080164D01*
X158013393Y-85216173D01*
X158241119Y-85316063D01*
X158482179Y-85377108D01*
X158556480Y-85383264D01*
X158667927Y-85392500D01*
X158667933Y-85392500D01*
X160292067Y-85392500D01*
X160292073Y-85392500D01*
X160393387Y-85384104D01*
X160477821Y-85377108D01*
X160718881Y-85316063D01*
X160946607Y-85216173D01*
X161154785Y-85080164D01*
X161337738Y-84911744D01*
X161490474Y-84715509D01*
X161608828Y-84496810D01*
X161689571Y-84261614D01*
X161730500Y-84016335D01*
X161730500Y-83767665D01*
X161689571Y-83522386D01*
X161608828Y-83287190D01*
X161490474Y-83068491D01*
X161490471Y-83068487D01*
X161490470Y-83068485D01*
X161337740Y-82872259D01*
X161337738Y-82872256D01*
X161154785Y-82703836D01*
X160946607Y-82567827D01*
X160946604Y-82567825D01*
X160821523Y-82512960D01*
X160718881Y-82467937D01*
X160477821Y-82406892D01*
X160477819Y-82406891D01*
X160477816Y-82406891D01*
X160292073Y-82391500D01*
X160292067Y-82391500D01*
X158667933Y-82391500D01*
X158667927Y-82391500D01*
X158482183Y-82406891D01*
X158482179Y-82406891D01*
X158482179Y-82406892D01*
X158241119Y-82467937D01*
X158241116Y-82467938D01*
X158241117Y-82467938D01*
X158013395Y-82567825D01*
X157874607Y-82658499D01*
X157805215Y-82703836D01*
X157661355Y-82836269D01*
X157622259Y-82872259D01*
X157469529Y-83068485D01*
X157351170Y-83287194D01*
X157270429Y-83522384D01*
X157229500Y-83767665D01*
X157229500Y-84016335D01*
X153911556Y-84016335D01*
X153910700Y-81788000D01*
X177634563Y-81788000D01*
X177654290Y-82114104D01*
X177713180Y-82435458D01*
X177810370Y-82747354D01*
X177810372Y-82747359D01*
X177810373Y-82747361D01*
X177944455Y-83045279D01*
X178113470Y-83324863D01*
X178314952Y-83582036D01*
X178545964Y-83813048D01*
X178803137Y-84014530D01*
X179082721Y-84183545D01*
X179380639Y-84317627D01*
X179692547Y-84414821D01*
X180013896Y-84473710D01*
X180340000Y-84493436D01*
X180666104Y-84473710D01*
X180987453Y-84414821D01*
X181103694Y-84378599D01*
X213677250Y-84378599D01*
X213697416Y-84647700D01*
X213697417Y-84647703D01*
X213757466Y-84910795D01*
X213856057Y-85161998D01*
X213990985Y-85395702D01*
X214159239Y-85606685D01*
X214357059Y-85790235D01*
X214580026Y-85942251D01*
X214823159Y-86059338D01*
X215081028Y-86138880D01*
X215347871Y-86179100D01*
X215617729Y-86179100D01*
X215884572Y-86138880D01*
X216142441Y-86059338D01*
X216385575Y-85942251D01*
X216608541Y-85790235D01*
X216677264Y-85726469D01*
X218682300Y-85726469D01*
X218688709Y-85786084D01*
X218713856Y-85853506D01*
X218739004Y-85920931D01*
X218825254Y-86036146D01*
X218940469Y-86122396D01*
X219075317Y-86172691D01*
X219134927Y-86179100D01*
X221830672Y-86179099D01*
X221890283Y-86172691D01*
X222025131Y-86122396D01*
X222140346Y-86036146D01*
X222226596Y-85920931D01*
X222276891Y-85786083D01*
X222283300Y-85726473D01*
X222283299Y-83030728D01*
X222276891Y-82971117D01*
X222226596Y-82836269D01*
X222140346Y-82721054D01*
X222025131Y-82634804D01*
X221890283Y-82584509D01*
X221830673Y-82578100D01*
X221830669Y-82578100D01*
X219134930Y-82578100D01*
X219075315Y-82584509D01*
X218940469Y-82634804D01*
X218825254Y-82721054D01*
X218739004Y-82836268D01*
X218688709Y-82971116D01*
X218682300Y-83030730D01*
X218682300Y-85726469D01*
X216677264Y-85726469D01*
X216806361Y-85606685D01*
X216974615Y-85395702D01*
X217109543Y-85161998D01*
X217208134Y-84910795D01*
X217268183Y-84647703D01*
X217288349Y-84378600D01*
X217268183Y-84109497D01*
X217208134Y-83846405D01*
X217109543Y-83595202D01*
X216974615Y-83361498D01*
X216806361Y-83150515D01*
X216806360Y-83150514D01*
X216608543Y-82966966D01*
X216551005Y-82927737D01*
X216385575Y-82814949D01*
X216142441Y-82697862D01*
X216062898Y-82673326D01*
X215884571Y-82618319D01*
X215617729Y-82578100D01*
X215347871Y-82578100D01*
X215081028Y-82618319D01*
X214823159Y-82697862D01*
X214580028Y-82814947D01*
X214357057Y-82966966D01*
X214159239Y-83150515D01*
X213990984Y-83361499D01*
X213856057Y-83595201D01*
X213757466Y-83846404D01*
X213697416Y-84109499D01*
X213677250Y-84378599D01*
X181103694Y-84378599D01*
X181299361Y-84317627D01*
X181597279Y-84183545D01*
X181876863Y-84014530D01*
X182134036Y-83813048D01*
X182365048Y-83582036D01*
X182566530Y-83324863D01*
X182735545Y-83045279D01*
X182869627Y-82747361D01*
X182966821Y-82435453D01*
X183025710Y-82114104D01*
X183045436Y-81788000D01*
X230466563Y-81788000D01*
X230486290Y-82114104D01*
X230545180Y-82435458D01*
X230642370Y-82747354D01*
X230642372Y-82747359D01*
X230642373Y-82747361D01*
X230776455Y-83045279D01*
X230945470Y-83324863D01*
X231146952Y-83582036D01*
X231377964Y-83813048D01*
X231635137Y-84014530D01*
X231914721Y-84183545D01*
X232212639Y-84317627D01*
X232524547Y-84414821D01*
X232845896Y-84473710D01*
X233172000Y-84493436D01*
X233498104Y-84473710D01*
X233819453Y-84414821D01*
X234131361Y-84317627D01*
X234429279Y-84183545D01*
X234708863Y-84014530D01*
X234966036Y-83813048D01*
X235197048Y-83582036D01*
X235398530Y-83324863D01*
X235567545Y-83045279D01*
X235701627Y-82747361D01*
X235798821Y-82435453D01*
X235857710Y-82114104D01*
X235877436Y-81788000D01*
X235857710Y-81461896D01*
X235798821Y-81140547D01*
X235701627Y-80828639D01*
X235567545Y-80530721D01*
X235398530Y-80251137D01*
X235197048Y-79993964D01*
X234966036Y-79762952D01*
X234708863Y-79561470D01*
X234429279Y-79392455D01*
X234131361Y-79258373D01*
X234131359Y-79258372D01*
X234131354Y-79258370D01*
X233819458Y-79161180D01*
X233742227Y-79147027D01*
X233498104Y-79102290D01*
X233498103Y-79102289D01*
X233172000Y-79082563D01*
X232845895Y-79102290D01*
X232524541Y-79161180D01*
X232212645Y-79258370D01*
X231914720Y-79392455D01*
X231635136Y-79561470D01*
X231377961Y-79762954D01*
X231146954Y-79993961D01*
X230945470Y-80251136D01*
X230776455Y-80530720D01*
X230642370Y-80828645D01*
X230545180Y-81140541D01*
X230486290Y-81461895D01*
X230466563Y-81788000D01*
X183045436Y-81788000D01*
X183025710Y-81461896D01*
X182966821Y-81140547D01*
X182869627Y-80828639D01*
X182735545Y-80530721D01*
X182566530Y-80251137D01*
X182365048Y-79993964D01*
X182134036Y-79762952D01*
X181876863Y-79561470D01*
X181597279Y-79392455D01*
X181299361Y-79258373D01*
X181299359Y-79258372D01*
X181299354Y-79258370D01*
X180987458Y-79161180D01*
X180910227Y-79147027D01*
X180666104Y-79102290D01*
X180666103Y-79102289D01*
X180340000Y-79082563D01*
X180013895Y-79102290D01*
X179692541Y-79161180D01*
X179380645Y-79258370D01*
X179082720Y-79392455D01*
X178803136Y-79561470D01*
X178545961Y-79762954D01*
X178314954Y-79993961D01*
X178113470Y-80251136D01*
X177944455Y-80530720D01*
X177810370Y-80828645D01*
X177713180Y-81140541D01*
X177654290Y-81461895D01*
X177634563Y-81788000D01*
X153910700Y-81788000D01*
X153910501Y-81268489D01*
X153910696Y-81261502D01*
X153914577Y-81192399D01*
X153916987Y-81149477D01*
X153927199Y-80980644D01*
X153928719Y-80967413D01*
X153951169Y-80835282D01*
X153951388Y-80834044D01*
X153978009Y-80688780D01*
X153980812Y-80676855D01*
X154019040Y-80544161D01*
X154019757Y-80541772D01*
X154062427Y-80404839D01*
X154066231Y-80394330D01*
X154119714Y-80265214D01*
X154121109Y-80261984D01*
X154179307Y-80132673D01*
X154183821Y-80123650D01*
X154251820Y-80000615D01*
X154254172Y-79996549D01*
X154327051Y-79875991D01*
X154332027Y-79868406D01*
X154413605Y-79753431D01*
X154417048Y-79748815D01*
X154503697Y-79638215D01*
X154508797Y-79632122D01*
X154602892Y-79526829D01*
X154607603Y-79521847D01*
X154706847Y-79422603D01*
X154711829Y-79417892D01*
X154817122Y-79323797D01*
X154823215Y-79318697D01*
X154933815Y-79232048D01*
X154938431Y-79228605D01*
X155053410Y-79147024D01*
X155060991Y-79142051D01*
X155181549Y-79069172D01*
X155185615Y-79066820D01*
X155308650Y-78998821D01*
X155317673Y-78994307D01*
X155446984Y-78936109D01*
X155450214Y-78934714D01*
X155579330Y-78881231D01*
X155589839Y-78877427D01*
X155726772Y-78834757D01*
X155729161Y-78834040D01*
X155861855Y-78795812D01*
X155873780Y-78793009D01*
X156019044Y-78766388D01*
X156020282Y-78766169D01*
X156152413Y-78743719D01*
X156165644Y-78742199D01*
X156334414Y-78731991D01*
X156446540Y-78725694D01*
X156453465Y-78725500D01*
X232675497Y-78740304D01*
G37*
%TD.AperFunction*%
%TD*%
M02*
